<?xml version="1.0" encoding="UTF-8" standalone="no"?>
<!-- Created with Inkscape (http://www.inkscape.org/) -->

<svg
   xmlns:dc="http://purl.org/dc/elements/1.1/"
   xmlns:cc="http://creativecommons.org/ns#"
   xmlns:rdf="http://www.w3.org/1999/02/22-rdf-syntax-ns#"
   xmlns:svg="http://www.w3.org/2000/svg"
   xmlns="http://www.w3.org/2000/svg"
   xmlns:sodipodi="http://sodipodi.sourceforge.net/DTD/sodipodi-0.dtd"
   xmlns:inkscape="http://www.inkscape.org/namespaces/inkscape"
   width="100mm"
   height="100mm"
   viewBox="0 0 354.33071 354.33071"
   id="svg2"
   version="1.1"
   inkscape:version="0.91 r13725"
   sodipodi:docname="cross15.svg">
  <defs
     id="defs4" />
  <sodipodi:namedview
     id="base"
     pagecolor="#ffffff"
     bordercolor="#666666"
     borderopacity="1.0"
     inkscape:pageopacity="0.0"
     inkscape:pageshadow="2"
     inkscape:zoom="1.28"
     inkscape:cx="258.90253"
     inkscape:cy="198.38663"
     inkscape:document-units="px"
     inkscape:current-layer="layer1"
     showgrid="false"
     inkscape:window-width="1315"
     inkscape:window-height="744"
     inkscape:window-x="51"
     inkscape:window-y="622"
     inkscape:window-maximized="1" />
  <metadata
     id="metadata7">
    <rdf:RDF>
      <cc:Work
         rdf:about="">
        <dc:format>image/svg+xml</dc:format>
        <dc:type
           rdf:resource="http://purl.org/dc/dcmitype/StillImage" />
        <dc:title></dc:title>
      </cc:Work>
    </rdf:RDF>
  </metadata>
  <g
     inkscape:label="Layer 1"
     inkscape:groupmode="layer"
     id="layer1"
     transform="translate(0,-698.0315)">
    <path
       style="fill:#000000"
       id="path4285"
       d="m 102.84184,753.32917 c 0.13212,0.0784 0.28841,0.12595 0.39635,0.23528 3.4391,3.48327 6.74948,7.09157 10.16153,10.60134 9.40141,9.67068 18.8793,19.26118 28.24289,28.96908 21.53776,22.60408 43.77207,44.53478 64.99991,67.43581 4.58228,4.94346 9.07377,9.97029 13.61065,14.95543 4.32429,4.96658 8.69153,9.89608 12.97286,14.89974 8.60042,10.05142 14.54858,17.23596 22.58437,27.63136 7.39567,9.56732 14.45304,19.39835 21.43804,29.2669 20.41678,28.86442 -20.40368,57.73809 -40.82046,28.87368 l 0,0 c -6.45161,-9.12764 -12.97052,-18.22407 -19.79725,-27.07688 -7.59009,-9.84272 -12.95585,-16.31614 -21.12433,-25.87389 -4.03939,-4.7264 -8.15937,-9.38332 -12.23906,-14.07499 -4.32813,-4.75986 -8.61164,-9.56067 -12.98437,-14.27959 -21.10313,-22.77385 -43.22252,-44.56827 -64.63124,-67.04941 -9.356075,-9.70365 -18.832625,-19.28421 -28.225821,-28.95139 -1.893603,-1.94883 -9.255405,-9.5413 -11.573583,-12.12634 -1.274599,-1.42132 -2.464772,-2.91615 -3.697158,-4.37422 -20.549873,-28.76982 20.1368,-57.83173 40.686672,-29.06191 z"
       inkscape:connector-curvature="0" />
    <path
       style="fill:#000000"
       id="path4289"
       d="m 288.67917,801.25935 c -0.66087,0.8114 -3.05186,3.75271 -3.32319,4.0472 -4.86043,5.27523 -6.97538,7.12676 -12.34255,12.17046 -20.57355,19.33359 5.76723,-5.51875 -17.45075,16.41202 -15.49505,14.82445 -30.94858,29.76742 -45.16989,45.83949 -9.73221,10.99876 -11.39451,13.52508 -20.31705,25.03799 -11.91171,15.97157 -22.69112,32.77033 -32.40409,50.16359 -4.69525,8.4079 -6.6414,12.47368 -10.87083,20.86537 -1.32921,2.7263 -2.65843,5.45261 -3.98765,8.17892 -15.5023,31.77541 -60.439558,9.85187 -44.937257,-21.92357 l 0,0 c 1.430651,-2.93066 2.861307,-5.86132 4.291957,-8.79197 4.85461,-9.59854 6.836,-13.74871 12.24852,-23.40828 10.84101,-19.34761 22.88816,-38.01944 36.18504,-55.77247 3.70692,-4.75514 7.31008,-9.59301 11.12076,-14.2654 18.1707,-22.27967 38.73623,-42.45348 59.50788,-62.27297 13.6385,-12.88129 5.23992,-4.97749 17.50945,-16.46738 1.82536,-1.70938 3.65279,-3.41657 5.47282,-5.13164 0.86105,-0.81139 1.76112,-1.58461 2.57035,-2.44771 0.17458,-0.18619 2.23357,-2.71008 2.85304,-3.4684 22.0863,-27.60788 61.12974,3.62687 39.04344,31.23475 z"
       inkscape:connector-curvature="0" />
  </g>
</svg>
