<?xml version="1.0" encoding="UTF-8" standalone="no"?>
<!-- Created with Inkscape (http://www.inkscape.org/) -->

<svg
   xmlns:dc="http://purl.org/dc/elements/1.1/"
   xmlns:cc="http://creativecommons.org/ns#"
   xmlns:rdf="http://www.w3.org/1999/02/22-rdf-syntax-ns#"
   xmlns:svg="http://www.w3.org/2000/svg"
   xmlns="http://www.w3.org/2000/svg"
   xmlns:sodipodi="http://sodipodi.sourceforge.net/DTD/sodipodi-0.dtd"
   xmlns:inkscape="http://www.inkscape.org/namespaces/inkscape"
   width="100mm"
   height="100mm"
   viewBox="0 0 354.33071 354.33071"
   id="svg2"
   version="1.1"
   inkscape:version="0.91 r13725"
   sodipodi:docname="circle14.svg">
  <defs
     id="defs4" />
  <sodipodi:namedview
     id="base"
     pagecolor="#ffffff"
     bordercolor="#666666"
     borderopacity="1.0"
     inkscape:pageopacity="0.0"
     inkscape:pageshadow="2"
     inkscape:zoom="1.28"
     inkscape:cx="258.90253"
     inkscape:cy="198.38663"
     inkscape:document-units="px"
     inkscape:current-layer="layer1"
     showgrid="false"
     inkscape:window-width="1315"
     inkscape:window-height="744"
     inkscape:window-x="51"
     inkscape:window-y="622"
     inkscape:window-maximized="1" />
  <metadata
     id="metadata7">
    <rdf:RDF>
      <cc:Work
         rdf:about="">
        <dc:format>image/svg+xml</dc:format>
        <dc:type
           rdf:resource="http://purl.org/dc/dcmitype/StillImage" />
        <dc:title></dc:title>
      </cc:Work>
    </rdf:RDF>
  </metadata>
  <g
     inkscape:label="Layer 1"
     inkscape:groupmode="layer"
     id="layer1"
     transform="translate(0,-698.0315)">
    <path
       style="fill:#000000"
       id="path4262"
       d="m 84.520167,758.87107 c 16.822483,10.84142 34.378573,20.44491 51.939723,30.01719 13.15642,7.16346 26.15085,14.62993 38.73868,22.75787 6.51683,4.2079 15.03147,9.97279 21.20277,14.77085 3.29446,2.56138 6.42281,5.32955 9.63422,7.99432 12.25331,10.70892 22.30599,23.50464 31.78533,36.64575 2.14907,2.97924 4.30268,5.95661 6.3617,8.99879 2.07503,3.06585 4.02525,6.21434 6.03788,9.32151 5.64659,9.21978 10.68659,18.79057 15.42073,28.50384 15.43666,31.80738 -29.54577,53.63812 -44.98243,21.83073 l 0,0 c -3.82066,-7.91676 -7.94626,-15.68968 -12.45839,-23.23639 -5.76864,-8.99415 -4.16144,-6.73471 -10.71701,-15.87386 -7.09531,-9.8916 -14.45501,-19.6731 -23.54513,-27.85289 -2.34057,-1.98351 -4.60851,-4.05605 -7.0217,-5.95053 -5.33089,-4.18503 -12.64649,-9.1401 -18.25814,-12.77737 -11.72898,-7.6023 -23.85986,-14.55091 -36.132,-21.23288 C 93.667104,822.50431 74.825695,812.15953 56.785157,800.47358 27.367736,780.86197 55.102746,739.25945 84.520167,758.87107 Z"
       inkscape:connector-curvature="0" />
    <path
       style="fill:#000000"
       id="path4264"
       d="m 255.28758,808.4337 c -2.52623,0.83505 -4.77798,2.09372 -6.96565,3.56978 -5.13129,3.45792 -8.98708,8.47861 -12.86024,13.22571 -9.04984,11.96301 -17.18278,24.58612 -25.38594,37.1352 -10.99676,17.07995 -22.06248,34.11193 -32.51164,51.53435 -9.37395,16.42622 -19.47482,32.46291 -28.23491,49.23497 -1.2733,2.43785 -2.4657,4.91712 -3.69855,7.37568 -3.43095,7.26321 -6.93017,14.69797 -8.14335,22.70908 0.0759,0.42578 0.0319,0.23548 0.12183,0.57316 -0.60266,35.35017 -50.595394,34.49797 -49.992738,-0.85228 l 0,0 c 0.179934,-5.32363 -0.0083,-2.52237 0.62979,-8.39914 0.777142,-4.18948 0.891656,-5.27344 2.068952,-9.53656 2.57888,-9.33841 6.415687,-18.27378 10.650306,-26.96689 1.46259,-2.89872 2.88065,-5.82034 4.38776,-8.69616 9.12881,-17.41932 19.57307,-34.11521 29.34068,-51.17401 10.79059,-17.96403 22.17396,-35.55194 33.53122,-53.16136 9.20282,-14.07634 18.33195,-28.23999 28.63123,-41.55065 7.16091,-8.64699 14.61056,-17.25041 24.17109,-23.34393 4.62596,-2.97026 9.38211,-5.73574 14.56419,-7.63421 32.49669,-13.92714 52.19265,32.03011 19.69597,45.95726 z"
       inkscape:connector-curvature="0" />
  </g>
</svg>
