
<svg id="svg2" xmlns:rdf="http://www.w3.org/1999/02/22-rdf-syntax-ns#" xmlns="http://www.w3.org/2000/svg" height="30mm" width="30mm" version="1.1" xmlns:cc="http://creativecommons.org/ns#" xmlns:dc="http://purl.org/dc/elements/1.1/" viewBox="0 0 106.29921 106.29921">
 <g id="layer1" transform="translate(0 -946.06)">
  <path id="path3453" d="m89.309 952.58c-28.047 28.044-56.079 56.103-84.12 84.153-.8663 1.64 1.5284 2.5492 2.3045 3.728 2.4175 2.2517 4.5576 4.9067 7.149 6.9055 1.5754-.013 2.4003-1.9932 3.628-2.8566 27.201-27.075 54.448-54.106 81.545-81.286.86521-1.6411-1.5311-2.5479-2.3086-3.7259-2.4709-2.303-4.6698-5.0026-7.3132-7.054-.27179-.23138-.59604.11444-.88452.13549z"/>
 </g>
 <g id="g3400" transform="translate(0 -946.06)">
  <path id="path3453-6" d="m5.2743 963.09c28.044 28.04 56.104 56.11 84.153 84.11 1.64.8663 2.5492-1.5284 3.728-2.3045 2.2517-2.4174 4.9067-4.5576 6.9055-7.149-.013-1.5754-1.9932-2.4003-2.8566-3.6279-27.075-27.202-54.106-54.448-81.286-81.545-1.6411-.86521-2.5479 1.5311-3.7259 2.3086-2.303 2.4709-5.0026 4.6698-7.054 7.3132-.23138.27179.11444.59604.13549.88452z"/>
 </g>
</svg>
