<?xml version="1.0" encoding="UTF-8" standalone="no"?>
<!-- Created with Inkscape (http://www.inkscape.org/) -->

<svg
   xmlns:dc="http://purl.org/dc/elements/1.1/"
   xmlns:cc="http://creativecommons.org/ns#"
   xmlns:rdf="http://www.w3.org/1999/02/22-rdf-syntax-ns#"
   xmlns:svg="http://www.w3.org/2000/svg"
   xmlns="http://www.w3.org/2000/svg"
   xmlns:sodipodi="http://sodipodi.sourceforge.net/DTD/sodipodi-0.dtd"
   xmlns:inkscape="http://www.inkscape.org/namespaces/inkscape"
   width="100mm"
   height="100mm"
   viewBox="0 0 354.33071 354.33071"
   id="svg2"
   version="1.1"
   inkscape:version="0.91 r13725"
   sodipodi:docname="cross8.svg">
  <defs
     id="defs4" />
  <sodipodi:namedview
     id="base"
     pagecolor="#ffffff"
     bordercolor="#666666"
     borderopacity="1.0"
     inkscape:pageopacity="0.0"
     inkscape:pageshadow="2"
     inkscape:zoom="1.28"
     inkscape:cx="258.90253"
     inkscape:cy="198.38663"
     inkscape:document-units="px"
     inkscape:current-layer="layer1"
     showgrid="false"
     inkscape:window-width="1315"
     inkscape:window-height="744"
     inkscape:window-x="51"
     inkscape:window-y="622"
     inkscape:window-maximized="1" />
  <metadata
     id="metadata7">
    <rdf:RDF>
      <cc:Work
         rdf:about="">
        <dc:format>image/svg+xml</dc:format>
        <dc:type
           rdf:resource="http://purl.org/dc/dcmitype/StillImage" />
        <dc:title></dc:title>
      </cc:Work>
    </rdf:RDF>
  </metadata>
  <g
     inkscape:label="Layer 1"
     inkscape:groupmode="layer"
     id="layer1"
     transform="translate(0,-698.0315)">
    <path
       style="fill:#000000"
       id="path3742"
       d="m 65.460539,725.23099 c 3.735212,5.1818 7.497061,10.34176 11.418516,15.38453 8.034421,11.26399 18.206966,20.68164 28.207165,30.14639 15.93244,14.77891 31.23104,30.24284 46.19475,45.99742 15.17034,16.28463 30.03886,32.85612 45.36961,48.99138 9.13832,9.61787 17.09328,17.52457 26.43458,26.93026 15.99411,15.59229 32.1318,31.06762 48.98292,45.73827 2.79884,2.54538 6.03312,4.46668 9.08161,6.67359 3.30281,2.69925 5.92039,6.05411 8.47086,9.43707 0.64865,0.56374 1.19515,1.87686 1.93427,2.3204 -0.43048,-0.51529 -0.57324,-0.59692 -0.28615,-0.40191 -2.408,-2.06527 1.63695,1.29071 0.29059,0.13667 25.54439,18.41195 -0.49404,54.53714 -26.03843,36.12522 l 0,0 c -1.45626,-1.0844 -2.49389,-1.87746 -3.94676,-3.0766 -2.76759,-2.52399 -5.2925,-5.27806 -7.51362,-8.29873 -0.76422,-1.014 -3.77153,-4.53237 -0.19215,-1.04613 0.31368,0.19849 1.25713,0.79012 0.94106,0.59546 -4.24982,-2.61736 -8.22369,-5.63522 -12.00132,-8.89597 -17.64023,-15.39188 -34.58807,-31.56377 -51.32178,-47.92993 -10.0677,-10.1404 -17.56425,-17.58212 -27.43638,-27.97243 C 148.8198,880.05644 134.04345,863.5984 118.98011,847.41363 104.57583,832.22221 89.818262,817.33833 74.469324,803.09824 62.822159,792.06634 51.107036,780.97278 41.687936,767.9032 37.422066,762.38899 33.290576,756.7769 29.223971,751.11426 10.921739,725.49113 47.158308,699.60787 65.460539,725.23099 Z"
       inkscape:connector-curvature="0" />
    <path
       style="fill:#000000"
       id="path3744"
       d="m 306.40282,771.19775 c -8.35739,7.22054 -17.10907,13.96273 -25.55383,21.08285 -1.96221,1.7124 -3.93874,3.40853 -5.88663,5.1372 -4.18079,3.71028 -8.28759,7.50328 -12.46141,11.22141 -6.83435,6.08816 -13.79047,12.02373 -20.77962,17.93258 -2.42122,2.08578 -4.85905,4.15242 -7.26367,6.25732 -5.93774,5.19765 -9.75281,8.56505 -15.3396,14.21404 -9.04321,9.1439 -17.42144,18.92813 -25.85339,28.62675 -3.06273,3.65559 -6.16307,7.28 -9.18819,10.96678 -0.15033,0.1832 -18.12746,22.55577 -18.23815,22.69416 -8.13242,10.16785 -16.25953,20.32812 -24.18431,30.65849 -7.60489,10.25534 -15.13718,20.57819 -21.68421,31.55229 -2.59173,4.34423 -3.88302,6.82266 -6.23761,11.16578 -2.55121,4.77955 -5.07928,9.61496 -6.94647,14.71212 -1.35911,3.43518 -2.86645,6.81228 -4.34947,10.19618 -1.06539,2.5627 -2.39792,4.9954 -3.715967,7.4329 -14.982219,27.6956 -54.149788,6.5076 -39.16757,-21.18808 l 0,0 c 0.736027,-1.36011 1.536197,-2.68531 2.102256,-4.13108 1.164817,-2.6534 2.343671,-5.30356 3.447958,-7.98082 2.661353,-6.99311 5.908342,-13.74798 9.50445,-20.30812 2.902364,-5.32768 4.290506,-7.99529 7.515039,-13.36392 7.341991,-12.22394 15.697471,-23.77964 24.210134,-35.206 8.13304,-10.58493 16.45479,-21.00828 24.79256,-31.43284 0.96488,-1.20638 18.13468,-22.56879 18.82439,-23.40845 3.19928,-3.89478 6.4778,-7.72379 9.71671,-11.58568 9.31085,-10.69822 18.58346,-21.44989 28.59585,-31.50871 6.1997,-6.22846 10.62177,-10.1493 17.13465,-15.84737 2.5088,-2.19492 5.05194,-4.35028 7.57791,-6.52543 6.64317,-5.61389 13.25688,-11.25088 19.75185,-17.03653 4.34284,-3.86857 8.61664,-7.81436 12.96967,-11.67146 2.13876,-1.89509 4.30897,-3.75438 6.46345,-5.63157 7.47862,-6.29452 15.06354,-12.49504 22.75487,-18.51314 22.26562,-22.26562 53.75397,9.22273 31.48835,31.48835 z"
       inkscape:connector-curvature="0" />
  </g>
</svg>
