<?xml version="1.0" encoding="UTF-8" standalone="no"?>
<!-- Created with Inkscape (http://www.inkscape.org/) -->

<svg
   xmlns:dc="http://purl.org/dc/elements/1.1/"
   xmlns:cc="http://creativecommons.org/ns#"
   xmlns:rdf="http://www.w3.org/1999/02/22-rdf-syntax-ns#"
   xmlns:svg="http://www.w3.org/2000/svg"
   xmlns="http://www.w3.org/2000/svg"
   xmlns:sodipodi="http://sodipodi.sourceforge.net/DTD/sodipodi-0.dtd"
   xmlns:inkscape="http://www.inkscape.org/namespaces/inkscape"
   width="100mm"
   height="100mm"
   viewBox="0 0 354.33071 354.33071"
   id="svg2"
   version="1.1"
   inkscape:version="0.91 r13725"
   sodipodi:docname="cross5.svg">
  <defs
     id="defs4" />
  <sodipodi:namedview
     id="base"
     pagecolor="#ffffff"
     bordercolor="#666666"
     borderopacity="1.0"
     inkscape:pageopacity="0.0"
     inkscape:pageshadow="2"
     inkscape:zoom="1.28"
     inkscape:cx="258.90253"
     inkscape:cy="198.38663"
     inkscape:document-units="px"
     inkscape:current-layer="layer1"
     showgrid="false"
     inkscape:window-width="1315"
     inkscape:window-height="744"
     inkscape:window-x="51"
     inkscape:window-y="622"
     inkscape:window-maximized="1" />
  <metadata
     id="metadata7">
    <rdf:RDF>
      <cc:Work
         rdf:about="">
        <dc:format>image/svg+xml</dc:format>
        <dc:type
           rdf:resource="http://purl.org/dc/dcmitype/StillImage" />
        <dc:title></dc:title>
      </cc:Work>
    </rdf:RDF>
  </metadata>
  <g
     inkscape:label="Layer 1"
     inkscape:groupmode="layer"
     id="layer1"
     transform="translate(0,-698.0315)">
    <path
       style="fill:#000000"
       id="path3657"
       d="m 59.423366,712.07326 c 6.148662,3.96639 11.10848,9.40913 16.270949,14.51913 1.690948,1.67376 3.404237,3.3248 5.106356,4.9872 11.383512,10.9926 23.428869,21.2668 35.068129,31.98204 11.29208,10.39562 12.51316,11.7418 23.7026,22.63839 23.85356,23.81336 44.79297,50.2739 65.46364,76.82915 10.05344,13.37087 20.59677,26.36637 30.7804,39.63545 5.47154,7.12931 6.4967,8.70114 11.50918,15.75767 4.77415,6.85415 9.15359,13.96959 13.95266,20.80528 2.79,3.96928 4.88331,8.35094 7.10781,12.64526 2.69746,5.13361 5.49239,10.21043 7.93386,15.47364 0.49543,1.3852 1.21192,2.71028 1.48628,4.15559 1.90891,10.05624 1.93881,17.825 -8.42482,26.00078 -4.73949,3.73896 -11.75116,2.77136 -17.62675,4.15696 -31.17137,-4.45656 -24.8688,-48.53955 6.30258,-44.08295 l 0,0 c -5.19659,1.48274 -11.51354,0.90035 -15.58977,4.44822 -5.69805,4.95948 -10.85273,16.05938 -6.69448,23.73269 -1.9831,-4.63138 -4.74269,-8.89436 -6.93864,-13.42295 -1.30383,-2.52429 -2.51006,-5.10716 -4.00473,-7.5235 -4.75664,-6.77801 -9.14587,-13.79867 -13.82775,-20.62825 C 197.95552,925.7551 183.45552,908.4241 169.89272,890.37966 150.47533,865.42637 130.85418,840.52018 108.49482,818.09483 97.989968,807.85372 96.623908,806.37218 85.996432,796.58698 73.936435,785.4828 61.450834,774.84008 49.675657,763.42713 45.051142,758.90479 40.52694,754.27034 35.82185,749.83568 9.1197836,733.14689 32.721299,695.38447 59.423366,712.07326 Z"
       inkscape:connector-curvature="0" />
    <path
       style="fill:#000000"
       id="path3659"
       d="m 282.14649,796.25709 c -6.50196,4.35965 -12.8395,8.93901 -18.94393,13.83915 -10.63098,8.90102 -18.46947,20.54253 -26.52878,31.69106 -12.68469,17.47693 -25.78524,34.64407 -38.84962,51.8369 -10.97933,14.28028 -23.08928,27.62931 -34.52338,41.53667 -9.20051,11.9917 -18.14081,24.17944 -27.21978,36.26337 -6.20924,8.23637 -12.24082,16.59701 -18.21585,25.00323 -18.244067,25.66453 -54.539251,-0.13643 -36.295186,-25.801 l 0,0 c 6.20275,-8.72461 12.466054,-17.40084 18.908776,-25.95127 9.47328,-12.60861 18.78077,-25.34229 28.43743,-37.81152 11.08093,-13.45291 22.76526,-26.40567 33.45182,-40.18187 12.8536,-16.91524 25.74496,-33.80356 38.22682,-50.99701 10.42787,-14.40281 20.84453,-29.12176 34.80735,-40.37606 6.86003,-5.46314 13.9125,-10.66168 21.20733,-15.53308 25.79626,-18.05738 51.33326,18.42404 25.537,36.48143 z"
       inkscape:connector-curvature="0" />
  </g>
</svg>
