<?xml version="1.0" encoding="UTF-8" standalone="no"?>
<svg
   xmlns:dc="http://purl.org/dc/elements/1.1/"
   xmlns:cc="http://creativecommons.org/ns#"
   xmlns:rdf="http://www.w3.org/1999/02/22-rdf-syntax-ns#"
   xmlns:svg="http://www.w3.org/2000/svg"
   xmlns="http://www.w3.org/2000/svg"
   version="1.1"
   id="svg2"
   viewBox="0 0 354.33071 354.33071"
   height="100mm"
   width="100mm">
  <defs
     id="defs4" />
  <metadata
     id="metadata7">
    <rdf:RDF>
      <cc:Work
         rdf:about="">
        <dc:format>image/svg+xml</dc:format>
        <dc:type
           rdf:resource="http://purl.org/dc/dcmitype/StillImage" />
        <dc:title></dc:title>
      </cc:Work>
    </rdf:RDF>
  </metadata>
  <g
     transform="translate(0,-698.0315)"
     id="layer1">
    <path
       d="m 251.03635,757.02156 c -3.14275,7.21872 -6.47423,14.39336 -10.31757,21.27161 -1.19993,2.14745 -2.48533,4.24602 -3.72799,6.36904 -9.57942,15.43615 -22.14869,28.63784 -34.52012,41.82296 -10.35627,10.82016 -20.87705,21.49795 -30.37939,33.09468 -6.61883,8.07767 -8.19968,10.53593 -14.30111,18.98227 -10.77216,14.69494 -18.80685,31.031 -25.88551,47.74222 -4.96712,11.83442 -9.05946,24.00545 -13.74438,35.9489 -5.6541,13.55381 -12.04168,26.79268 -18.365196,40.04426 -5.080361,10.0568 -9.956135,20.3069 -16.621832,29.4336 -0.955518,1.0583 -1.911036,2.1165 -2.866553,3.1748 -22.201222,22.3299 -53.780389,-9.0674 -31.579167,-31.3973 l 0,0 c -0.366425,0.4658 -0.73285,0.9316 -1.099275,1.3974 1.306295,-1.36 2.484159,-3.693 3.345958,-5.23653 3.03386,-5.43388 5.87195,-10.98156 8.634142,-16.55687 5.877474,-12.30603 11.801876,-24.60538 17.114305,-37.16751 4.860218,-12.30045 9.003482,-24.87939 14.195625,-37.05193 2.744293,-6.44423 3.834867,-9.18349 6.902607,-15.62252 6.795916,-14.26429 14.681516,-27.99994 23.910816,-40.83934 7.17578,-9.87469 8.7656,-12.3729 16.54506,-21.8275 9.95178,-12.09468 20.88393,-23.30625 31.72327,-34.59305 10.12641,-10.78689 20.53907,-21.48604 28.62184,-33.95074 3.97254,-6.68606 7.54643,-13.57006 10.71856,-20.67442 11.0563,-29.48346 52.75221,-13.84749 41.69591,15.63597 z"
       id="path3607"
       style="fill:#000000" />
    <path
       d="m 68.282731,743.94324 c 0.90388,0.38502 0.393084,0.15872 2.196303,1.7418 3.91173,3.43419 6.869649,7.49262 9.715118,11.81339 4.074551,6.71681 8.037922,13.49852 11.972874,20.29761 6.969519,12.27626 13.931654,24.55067 21.153434,36.68121 8.77391,14.67202 19.08884,28.32533 29.2892,42.01539 10.72789,14.34599 21.65366,28.54249 32.64132,42.69 11.02682,14.10819 22.00432,28.25474 32.98225,42.40097 9.4722,12.43357 19.79319,24.17679 29.5547,36.37892 2.30744,2.91158 4.56697,5.86774 7.10909,8.58192 0.59074,0.63072 1.09692,1.4025 1.86245,1.80342 0.11192,0.0586 -0.15885,-0.19649 -0.23828,-0.29474 -1.46071,-1.41278 -3.36061,-1.90091 -5.17215,-2.66495 -0.19198,-0.081 0.41164,0.0737 0.6093,0.13956 5.78672,1.92938 3.61657,1.05287 8.94415,3.93383 4.81357,2.93707 8.5476,7.26275 13.09015,10.54413 0.33955,0.2444 0.67909,0.4889 1.01863,0.7333 0.0826,0.041 0.31301,0.1901 0.24792,0.1244 -0.83518,-0.8427 -2.04778,-1.2468 -3.18203,-1.59483 -5.3607,-1.64486 -5.49275,-0.92271 -11.71821,-0.3339 -1.87439,0.83947 -3.74878,1.67893 -5.62317,2.51843 -0.21913,0.1485 -0.86931,0.6042 -0.65739,0.4456 1.79548,-1.3441 1.7687,-1.2364 4.03081,-2.60177 27.57836,-15.19704 49.07022,23.80467 21.49186,39.00167 l 0,0 c 0.44566,-0.2902 0.8974,-0.5712 1.33698,-0.8705 0.12396,-0.084 0.47397,-0.3675 0.35236,-0.2798 -3.97382,2.8683 -0.29574,0.5818 -8.4593,4.5354 -2.75762,0.3421 -5.49414,1.0406 -8.27286,1.0263 -6.53409,-0.034 -12.3928,-3.449 -17.45168,-7.2054 -2.23426,-1.7188 -4.37759,-3.5005 -6.50872,-5.3444 -1.02368,-0.8857 -2.16359,-1.6562 -3.05699,-2.6732 -0.0508,-0.058 0.153,0.018 0.22949,0.026 3.46825,1.4889 -0.51671,-0.1383 4.04994,1.3763 0.42193,0.1399 -0.87204,-0.1789 -1.29792,-0.3064 -4.11506,-1.2312 -7.79619,-2.6148 -11.22531,-5.2898 -0.92569,-0.752 -1.87982,-1.4703 -2.77705,-2.256 -5.12493,-4.488 -9.25829,-9.983 -13.50939,-15.2618 -9.8933,-12.37436 -20.3752,-24.26736 -29.95795,-36.89075 C 162.0781,954.743 151.1039,940.60085 140.08053,926.49695 128.91131,912.11481 117.80491,897.68296 106.90036,883.09862 95.782696,868.1766 84.591434,853.26057 75.05434,837.25303 67.742262,824.96498 60.679088,812.53901 53.625119,800.10195 c -3.566807,-6.16302 -7.168496,-12.30399 -10.821135,-18.41659 -0.383097,-0.62075 -0.889904,-1.18247 -1.141004,-1.86733 -0.04506,-0.1229 0.487056,0.16319 0.383917,0.0826 -0.519156,-0.40574 -1.055078,-0.78954 -1.582618,-1.18432 -24.588269,-19.67061 3.230182,-54.44368 27.818452,-34.77306 z"
       id="path3609"
       style="fill:#000000" />
  </g>
</svg>
