<?xml version="1.0" encoding="UTF-8" standalone="no"?>
<svg
   xmlns:dc="http://purl.org/dc/elements/1.1/"
   xmlns:cc="http://creativecommons.org/ns#"
   xmlns:rdf="http://www.w3.org/1999/02/22-rdf-syntax-ns#"
   xmlns:svg="http://www.w3.org/2000/svg"
   xmlns="http://www.w3.org/2000/svg"
   version="1.1"
   id="svg2"
   viewBox="0 0 354.33071 354.33071"
   height="100mm"
   width="100mm">
  <defs
     id="defs4" />
  <metadata
     id="metadata7">
    <rdf:RDF>
      <cc:Work
         rdf:about="">
        <dc:format>image/svg+xml</dc:format>
        <dc:type
           rdf:resource="http://purl.org/dc/dcmitype/StillImage" />
        <dc:title></dc:title>
      </cc:Work>
    </rdf:RDF>
  </metadata>
  <g
     transform="translate(0,-698.0315)"
     id="layer1">
    <path
       d="m 78.596621,959.34342 c -0.373136,-1.67349 -0.942873,-3.315 -1.119407,-5.02047 -1.116323,-10.78462 1.949542,-22.57339 5.77345,-32.56319 1.402947,-3.66515 3.112058,-7.20564 4.668087,-10.80846 14.381169,-29.44087 35.602529,-54.64465 56.222079,-79.82917 17.11079,-20.48753 34.50827,-40.97847 54.4796,-58.78048 2.80876,-2.50367 5.74869,-4.85619 8.62304,-7.28428 2.33088,-1.82453 4.66176,-3.64906 6.99264,-5.47359 24.82773,-19.36749 52.2175,15.74423 27.38976,35.11172 l 0,0 c -1.90984,1.48355 -3.81968,2.9671 -5.72952,4.45064 -2.31879,1.93694 -4.69316,3.80923 -6.95638,5.81081 -6.73983,5.96067 -11.43475,10.68383 -17.74946,17.29802 -11.36819,11.90732 -22.18796,24.32659 -32.59561,37.07973 -18.07732,22.07365 -36.86411,44.02944 -49.92959,69.58185 -2.54177,5.59088 -3.52386,7.21618 -5.23919,12.76261 -0.46211,1.49421 -0.76365,3.03343 -1.14632,4.54993 -0.16356,0.64817 0.0621,1.57064 -0.49238,1.94408 -0.84634,0.57003 0.0583,-3.79464 -0.94475,-2.91177 9.95749,29.87247 -32.288559,43.95449 -42.246049,14.08202 z"
       id="path3580"
       style="fill:#000000" />
    <path
       d="m 106.18229,758.18092 c 9.26166,21.74426 18.16237,43.63912 27.43147,65.38049 9.06516,20.61197 18.49594,41.09287 29.26953,60.87787 5.48541,10.07359 8.33413,14.66589 14.13946,24.43684 11.20122,18.03185 22.41024,36.08255 34.69665,53.40471 2.35487,3.32005 4.79291,6.58031 7.18936,9.87046 9.76427,12.49322 19.36241,25.25197 30.43517,36.64131 -3.77336,-5.405 2.87657,3.4686 2.46848,2.3968 -0.0989,-0.2598 -0.37269,-0.4249 -0.61156,-0.5672 -1.88504,-1.1227 -3.82824,-2.1448 -5.74237,-3.2172 29.59777,10.7465 14.39984,52.6041 -15.19793,41.8575 l 0,0 c -2.10582,-1.142 -4.27475,-2.1746 -6.31746,-3.426 -2.51118,-1.5384 -4.49284,-4.2003 -6.66005,-6.1387 -12.41097,-12.9501 -23.48393,-27.1272 -34.38399,-41.34856 -2.60799,-3.58857 -5.25964,-7.14582 -7.82397,-10.76572 -12.86497,-18.16063 -24.62485,-37.0693 -36.34568,-55.97742 -6.3275,-10.66948 -9.26505,-15.40132 -15.25716,-26.43517 C 112.1449,884.31276 102.18498,862.74638 92.648568,841.02237 83.394409,819.30644 74.495611,797.44256 65.251617,775.72264 52.847749,746.78028 93.778426,729.23856 106.18229,758.18092 Z"
       id="path3582"
       style="fill:#000000" />
  </g>
</svg>
