<?xml version="1.0" encoding="UTF-8" standalone="no"?>
<!-- Created with Inkscape (http://www.inkscape.org/) -->

<svg
   xmlns:dc="http://purl.org/dc/elements/1.1/"
   xmlns:cc="http://creativecommons.org/ns#"
   xmlns:rdf="http://www.w3.org/1999/02/22-rdf-syntax-ns#"
   xmlns:svg="http://www.w3.org/2000/svg"
   xmlns="http://www.w3.org/2000/svg"
   xmlns:sodipodi="http://sodipodi.sourceforge.net/DTD/sodipodi-0.dtd"
   xmlns:inkscape="http://www.inkscape.org/namespaces/inkscape"
   width="100mm"
   height="100mm"
   viewBox="0 0 354.33071 354.33071"
   id="svg2"
   version="1.1"
   inkscape:version="0.91 r13725"
   sodipodi:docname="cross12.svg">
  <defs
     id="defs4" />
  <sodipodi:namedview
     id="base"
     pagecolor="#ffffff"
     bordercolor="#666666"
     borderopacity="1.0"
     inkscape:pageopacity="0.0"
     inkscape:pageshadow="2"
     inkscape:zoom="1.28"
     inkscape:cx="258.90253"
     inkscape:cy="198.38663"
     inkscape:document-units="px"
     inkscape:current-layer="layer1"
     showgrid="false"
     inkscape:window-width="1315"
     inkscape:window-height="744"
     inkscape:window-x="51"
     inkscape:window-y="622"
     inkscape:window-maximized="1" />
  <metadata
     id="metadata7">
    <rdf:RDF>
      <cc:Work
         rdf:about="">
        <dc:format>image/svg+xml</dc:format>
        <dc:type
           rdf:resource="http://purl.org/dc/dcmitype/StillImage" />
        <dc:title></dc:title>
      </cc:Work>
    </rdf:RDF>
  </metadata>
  <g
     inkscape:label="Layer 1"
     inkscape:groupmode="layer"
     id="layer1"
     transform="translate(0,-698.0315)">
    <path
       style="fill:#000000"
       id="path3872"
       d="m 81.042213,710.17235 c 2.345819,2.91528 4.90203,5.65486 7.467024,8.37849 8.80532,9.01429 18.210893,17.4231 27.341143,26.10694 10.76626,10.3892 21.68073,20.62487 31.97179,31.49265 7.58119,8.00604 8.91038,9.67277 16.14923,17.91271 12.45515,14.08816 23.79149,29.08886 34.9087,44.2368 8.80525,12.19838 17.405,24.5385 25.44861,37.25313 7.80156,11.94143 14.06424,24.45527 19.58247,37.57669 4.26847,10.43243 7.77617,21.15574 10.53687,32.07928 1.32588,6.37884 2.45834,12.79424 3.70011,19.19035 0.0484,0.17188 0.12291,0.69279 0.14527,0.51563 0.0279,-0.22104 -0.23388,-0.85185 -0.12754,-0.65608 0.1805,0.3323 0.24962,0.71428 0.35623,1.0771 0.92519,3.14877 1.4757,6.23913 1.90034,9.49002 0.47551,5.27162 0.59628,10.57156 0.39984,15.8586 -1.89175,35.30474 -51.82012,32.62934 -49.92837,-2.67534 l 0,0 c 0.0433,-2.27816 -0.006,-5.03312 -0.14893,-7.51313 0.13205,-0.2735 0.506,1.21537 0.30191,0.52758 -0.69957,-2.35762 -1.58281,-4.66867 -1.98468,-7.10747 -1.07507,-5.55392 -2.11574,-11.11243 -3.1447,-16.67445 -2.0336,-8.47024 -4.92518,-16.71555 -8.12999,-24.80899 -4.36757,-10.50296 -9.47193,-20.66357 -15.73502,-30.18291 -7.40118,-11.745 -15.38363,-23.09931 -23.48451,-34.3707 -10.25542,-13.97962 -20.68727,-27.84363 -32.18271,-40.84211 -6.57233,-7.50321 -7.58228,-8.79518 -14.49128,-16.11362 C 102.09242,800.54106 91.646958,790.80966 81.389585,780.88558 71.582779,771.55588 61.465823,762.53536 52.069608,752.78757 47.286736,747.68752 42.493089,742.53448 38.642297,736.6723 19.904005,706.69103 62.30392,680.19108 81.042213,710.17235 Z"
       inkscape:connector-curvature="0" />
    <path
       style="fill:#000000"
       id="path3874"
       d="m 308.66425,744.88484 c -11.30347,4.63984 -22.1812,10.20749 -32.91713,16.01904 -12.49677,7.07309 -25.05654,14.16766 -36.75981,22.52178 -1.71153,1.22175 -3.37097,2.51488 -5.05645,3.77232 -10.12087,7.50987 -17.68127,17.67834 -25.32255,27.55118 -10.0938,13.32736 -20.15005,26.68082 -30.38488,39.90045 -10.72367,13.87843 -20.46802,28.47628 -29.90029,43.25147 -11.75634,18.54675 -22.1181,37.91691 -32.8731,57.0469 -8.75539,14.65676 -15.782425,30.22111 -22.93969,45.69042 -2.303554,5.1483 -4.579071,10.3046 -7.14659,15.3279 -1.3604,2.7029 -2.822458,5.3498 -4.355959,7.9571 -18.412803,30.1823 -61.096962,4.1427 -42.684159,-26.03959 l 0,0 c -0.90122,2.17049 3.61253,-6.97348 2.539999,-4.71531 2.273434,-4.42282 4.196658,-9.00667 6.268497,-13.5258 7.709576,-16.66262 15.338727,-33.39672 24.735533,-49.20139 11.218292,-19.94677 22.033751,-40.1399 34.322459,-59.4625 10.25462,-16.03466 20.84223,-31.87847 32.49796,-46.93894 10.23965,-13.22507 20.29317,-26.58971 30.3982,-39.91766 10.4542,-13.47554 21.1593,-26.95399 35.06392,-37.08781 2.2078,-1.62937 4.3847,-3.30147 6.6234,-4.88812 13.15155,-9.32094 27.1823,-17.34436 41.216,-25.23763 12.42816,-6.69706 25.01651,-13.12192 38.10511,-18.44764 32.82661,-13.13065 51.39614,33.29319 18.56953,46.42383 z"
       inkscape:connector-curvature="0" />
  </g>
</svg>
