<?xml version="1.0" encoding="UTF-8" standalone="no"?>
<!-- Created with Inkscape (http://www.inkscape.org/) -->

<svg
   xmlns:dc="http://purl.org/dc/elements/1.1/"
   xmlns:cc="http://creativecommons.org/ns#"
   xmlns:rdf="http://www.w3.org/1999/02/22-rdf-syntax-ns#"
   xmlns:svg="http://www.w3.org/2000/svg"
   xmlns="http://www.w3.org/2000/svg"
   xmlns:sodipodi="http://sodipodi.sourceforge.net/DTD/sodipodi-0.dtd"
   xmlns:inkscape="http://www.inkscape.org/namespaces/inkscape"
   width="100mm"
   height="100mm"
   viewBox="0 0 354.33071 354.33071"
   id="svg2"
   version="1.1"
   inkscape:version="0.91 r13725"
   sodipodi:docname="cross6.svg">
  <defs
     id="defs4" />
  <sodipodi:namedview
     id="base"
     pagecolor="#ffffff"
     bordercolor="#666666"
     borderopacity="1.0"
     inkscape:pageopacity="0.0"
     inkscape:pageshadow="2"
     inkscape:zoom="1.28"
     inkscape:cx="258.90253"
     inkscape:cy="198.38663"
     inkscape:document-units="px"
     inkscape:current-layer="layer1"
     showgrid="false"
     inkscape:window-width="1315"
     inkscape:window-height="744"
     inkscape:window-x="51"
     inkscape:window-y="622"
     inkscape:window-maximized="1" />
  <metadata
     id="metadata7">
    <rdf:RDF>
      <cc:Work
         rdf:about="">
        <dc:format>image/svg+xml</dc:format>
        <dc:type
           rdf:resource="http://purl.org/dc/dcmitype/StillImage" />
        <dc:title></dc:title>
      </cc:Work>
    </rdf:RDF>
  </metadata>
  <g
     inkscape:label="Layer 1"
     inkscape:groupmode="layer"
     id="layer1"
     transform="translate(0,-698.0315)">
    <path
       style="fill:#000000"
       id="path3696"
       d="m 52.393766,728.27098 c 0.939925,0.46664 1.910886,0.87538 2.819774,1.3999 4.602843,2.65634 8.758322,5.95792 12.829704,9.35163 4.960687,4.13499 7.226578,6.24453 12.183536,10.67486 17.240335,15.92573 33.76013,32.60445 50.33994,49.20959 13.54419,14.04368 27.21846,28.00958 39.82727,42.91551 9.54966,11.28946 10.93517,13.52404 19.79178,25.39008 16.10111,22.63232 30.92899,46.12789 46.57526,69.07156 7.38053,11.01667 16.05398,21.05257 24.17751,31.50526 4.40452,5.66737 5.30999,6.95992 9.39908,12.49883 5.1571,6.80078 9.81306,13.94504 14.24721,21.2303 3.3271,4.9871 6.44661,10.1089 9.10897,15.4821 0.48006,1.2536 1.13955,2.4525 1.4402,3.7607 2.7172,11.8234 1.03935,16.0611 -11.55691,27.5539 -4.8975,4.4685 -13.59052,2.1354 -18.99204,0.6408 -0.72338,-0.2002 -1.37886,-0.5934 -2.06829,-0.8901 -4.96544,-2.8323 -2.48686,-1.1525 -7.35013,-5.1634 -22.56383,-21.9634 8.49707,-53.87344 31.0609,-31.9101 l 0,0 c -3.51741,-2.7161 -1.76972,-1.6247 -5.15682,-3.4084 -4.61812,-1.7635 -13.59743,-2.7987 -17.38699,0.8904 -9.65205,9.3964 -14.98853,17.1171 -10.08238,27.9074 -1.77643,-4.2001 -4.80751,-7.7905 -7.06116,-11.7194 -3.74455,-6.159 -7.66079,-12.2064 -12.0397,-17.9407 -3.676,-4.9885 -4.54257,-6.2246 -8.52083,-11.34777 -8.75296,-11.27207 -18.08006,-22.11072 -26.01222,-34.00469 -15.29398,-22.4376 -29.82768,-45.38656 -45.50117,-67.56442 C 146.7537,883.41501 145.30502,881.12502 136.95,871.2254 124.96523,857.02499 111.93265,843.74867 99.054259,830.37118 83.064213,814.35651 67.13448,798.26933 50.532684,782.8831 c -5.25969,-4.71234 -5.590209,-5.08133 -10.64205,-9.35751 -1.062427,-0.8993 -2.144759,-1.77481 -3.217138,-2.66222 -0.732954,-0.54633 -1.494466,-1.0563 -2.198864,-1.63899 -0.09711,-0.0803 0.606555,-0.22338 0.377415,-0.0227 -28.942359,-12.40387 -11.40064,-53.33455 17.541719,-40.93068 z"
       inkscape:connector-curvature="0" />
    <path
       style="fill:#000000"
       id="path3698"
       d="m 265.45023,764.39495 c -2.15948,2.9678 -4.3692,5.89981 -6.54543,8.85605 -4.72664,6.88189 -10.09575,13.26066 -15.47258,19.63526 -9.64892,11.17047 -19.45432,22.20027 -29.01789,33.44545 -13.01458,15.32575 -26.99523,29.78634 -40.47195,44.69875 -12.50647,13.95841 -24.26418,28.5642 -35.92592,43.22864 -7.32845,8.93223 -13.65311,18.62952 -19.50049,28.57828 -2.19508,4.02515 -4.39389,8.03579 -6.87709,11.89209 -1.55318,1.96943 -2.74723,4.12639 -3.99933,6.28488 -0.36384,0.59316 -0.74043,1.17868 -1.09153,1.77947 -0.0956,0.16356 0.24116,-0.2965 0.32435,-0.4667 0.39133,-0.8006 1.35662,-3.28766 1.1139,-2.43024 -0.17367,0.61348 -0.34584,1.22776 -0.5436,1.8339 -0.23165,0.71005 -0.49615,1.40896 -0.74423,2.11343 -1.48729,3.92439 -3.79848,7.43558 -6.13405,10.89267 -1.32662,2.08448 -2.878857,4.0121 -4.158576,6.12615 -0.05536,0.12442 -0.102885,0.25263 -0.166076,0.37327 -0.681933,1.30181 -1.030632,1.84704 -1.787767,3.19451 -0.162812,0.28976 -0.32563,0.57975 -0.475951,0.87618 -0.0337,0.0665 -0.111696,0.2755 -0.07513,0.21056 0.148192,-0.2632 0.274146,-0.53833 0.411219,-0.80749 0.365254,-0.90015 0.192733,-0.41916 0.499146,-1.42696 0.02387,-0.0785 0.08455,-0.31659 0.07188,-0.2355 -0.212401,1.35994 -0.487921,2.69294 -0.745575,4.04206 -0.841841,3.33813 -0.482665,2.29503 -1.86351,5.90107 -0.296276,0.77371 -0.623206,1.31026 -0.838562,2.11248 -0.580232,1.59733 -1.266856,3.15002 -1.92051,4.71747 -12.266779,29.00072 -53.280003,11.65292 -41.013224,-17.34784 l 0,0 c 1.052774,-2.47348 -0.07837,0.26407 0.979783,-2.29941 0.551084,-1.51084 0.44667,-1.2702 0.902862,-2.40809 0.206995,-0.51631 0.412319,-1.03332 0.6244,-1.54756 0.0625,-0.15156 0.243266,-0.60756 0.19927,-0.44964 -0.924405,3.31819 -0.297571,0.45909 -0.783543,2.82429 0.534773,-2.7276 0.932298,-6.08062 2.199113,-9.53816 0.422704,-1.02975 0.813561,-2.07315 1.268111,-3.08924 1.337404,-2.9896 3.206762,-5.71545 4.701131,-8.6225 1.635065,-2.60173 3.41691,-5.09438 5.14064,-7.63602 1.103423,-1.60352 -0.270216,0.40584 1.180629,-1.77676 0.163523,-0.246 0.446836,-1.03364 0.486191,-0.74088 0.0593,0.44111 -0.594486,0.7809 -0.481826,1.24528 -0.110007,0.61101 0.322955,-1.20014 0.528821,-1.78585 0.986771,-2.80746 2.004171,-5.53258 3.685732,-8.00094 1.596977,-2.74441 3.14971,-5.52193 5.081138,-8.05138 2.164039,-3.34934 3.949437,-6.90913 5.935897,-10.36596 6.919878,-11.71922 14.394223,-23.13913 23.014797,-33.69097 12.24715,-15.39545 24.60148,-30.72358 37.74306,-45.37093 13.18043,-14.57665 26.8397,-28.72374 39.58605,-43.68852 9.52614,-11.19794 19.27902,-22.19373 28.90115,-33.30764 4.74577,-5.62452 9.51422,-11.2193 13.64803,-17.32128 2.52964,-3.4361 5.08131,-6.85599 7.63397,-10.27418 19.67062,-24.58827 54.44368,3.23018 34.77307,27.81845 z"
       inkscape:connector-curvature="0" />
  </g>
</svg>
