<?xml version="1.0" encoding="UTF-8" standalone="no"?>
<!-- Created with Inkscape (http://www.inkscape.org/) -->

<svg
   xmlns:dc="http://purl.org/dc/elements/1.1/"
   xmlns:cc="http://creativecommons.org/ns#"
   xmlns:rdf="http://www.w3.org/1999/02/22-rdf-syntax-ns#"
   xmlns:svg="http://www.w3.org/2000/svg"
   xmlns="http://www.w3.org/2000/svg"
   xmlns:sodipodi="http://sodipodi.sourceforge.net/DTD/sodipodi-0.dtd"
   xmlns:inkscape="http://www.inkscape.org/namespaces/inkscape"
   width="100mm"
   height="100mm"
   viewBox="0 0 354.33071 354.33071"
   id="svg2"
   version="1.1"
   inkscape:version="0.91 r13725"
   sodipodi:docname="cross9.svg">
  <defs
     id="defs4" />
  <sodipodi:namedview
     id="base"
     pagecolor="#ffffff"
     bordercolor="#666666"
     borderopacity="1.0"
     inkscape:pageopacity="0.0"
     inkscape:pageshadow="2"
     inkscape:zoom="1.28"
     inkscape:cx="258.90253"
     inkscape:cy="198.38663"
     inkscape:document-units="px"
     inkscape:current-layer="layer1"
     showgrid="false"
     inkscape:window-width="1315"
     inkscape:window-height="744"
     inkscape:window-x="51"
     inkscape:window-y="622"
     inkscape:window-maximized="1" />
  <metadata
     id="metadata7">
    <rdf:RDF>
      <cc:Work
         rdf:about="">
        <dc:format>image/svg+xml</dc:format>
        <dc:type
           rdf:resource="http://purl.org/dc/dcmitype/StillImage" />
        <dc:title></dc:title>
      </cc:Work>
    </rdf:RDF>
  </metadata>
  <g
     inkscape:label="Layer 1"
     inkscape:groupmode="layer"
     id="layer1"
     transform="translate(0,-698.0315)">
    <path
       style="fill:#000000"
       id="path3771"
       d="m 119.98778,758.08841 c 13.64462,13.04248 27.83565,25.49996 41.36396,38.6668 5.27605,5.13508 10.42941,10.39473 15.64412,15.59209 30.81624,31.56874 59.00393,65.54687 87.53609,99.15396 16.57655,19.52618 33.77344,38.51058 51.36543,57.12318 4.18084,4.4016 8.40208,8.7654 12.727,13.02582 1.20389,1.1199 2.30793,2.32902 3.42735,3.53278 23.50272,26.41256 -13.85025,59.65036 -37.35297,33.23786 l 0,0 c 0.18006,0.1728 0.71478,0.6968 0.54019,0.5185 -0.55839,-0.5704 -1.15443,-1.1031 -1.71023,-1.676 -4.74559,-4.6782 -9.38443,-9.4629 -13.97135,-14.2965 -18.1988,-19.25998 -35.99122,-38.90238 -53.14141,-59.10562 -27.63916,-32.5556 -54.92637,-65.48578 -84.72934,-96.11259 -4.9124,-4.90338 -9.76573,-9.86666 -14.7372,-14.71015 -13.83907,-13.4828 -28.393843,-26.20089 -42.316982,-39.59479 -25,-25 10.35534,-60.35534 35.355342,-35.35534 z"
       inkscape:connector-curvature="0" />
    <path
       style="fill:#000000"
       id="path3773"
       d="m 295.1268,794.26656 c -0.57087,0.39811 -1.14003,0.79868 -1.71262,1.19432 -1.59918,1.10497 -3.06036,2.04159 -4.56042,3.2764 -3.03459,2.498 -5.606,5.43487 -8.2069,8.36354 -14.68428,16.99423 -28.05848,35.05962 -41.74542,52.85148 -17.60265,23.10638 -35.79005,45.75674 -53.8853,68.47671 -11.74137,14.53992 -23.15745,29.34681 -33.45459,44.95217 -0.56076,1.33829 -1.86747,2.77015 -2.0865,4.30552 -12.88758,32.9228 -59.447437,14.697 -46.55986,-18.22579 l 0,0 c 1.95843,-4.73927 4.07653,-9.38951 6.94727,-13.66932 11.14316,-16.80444 23.35133,-32.84994 36.04256,-48.51254 17.9205,-22.50051 35.93456,-44.93031 53.36656,-67.81403 14.51164,-18.86295 28.69547,-38.01623 44.34759,-55.96406 1.84354,-2.00545 3.62789,-4.06697 5.53062,-6.01634 5.11692,-5.24231 10.80122,-9.87889 16.9151,-13.90473 28.76982,-20.54988 57.83173,20.1368 29.06191,40.68667 z"
       inkscape:connector-curvature="0" />
  </g>
</svg>
