<?xml version="1.0" encoding="UTF-8" standalone="no"?>
<svg
   xmlns:dc="http://purl.org/dc/elements/1.1/"
   xmlns:cc="http://creativecommons.org/ns#"
   xmlns:rdf="http://www.w3.org/1999/02/22-rdf-syntax-ns#"
   xmlns:svg="http://www.w3.org/2000/svg"
   xmlns="http://www.w3.org/2000/svg"
   version="1.1"
   id="svg2"
   viewBox="0 0 354.33071 354.33071"
   height="100mm"
   width="100mm">
  <defs
     id="defs4" />
  <metadata
     id="metadata7">
    <rdf:RDF>
      <cc:Work
         rdf:about="">
        <dc:format>image/svg+xml</dc:format>
        <dc:type
           rdf:resource="http://purl.org/dc/dcmitype/StillImage" />
        <dc:title></dc:title>
      </cc:Work>
    </rdf:RDF>
  </metadata>
  <g
     transform="translate(0,-698.0315)"
     id="layer1">
    <path
       d="m 49.753597,988.36427 c 5.692781,-9.17506 12.346177,-17.70196 18.493369,-26.57218 12.349744,-17.25363 26.963621,-32.71282 41.553574,-48.05992 12.84622,-13.1335 26.71515,-25.19651 40.07651,-37.78969 8.79197,-8.28649 11.32528,-10.88158 19.90711,-19.34747 10.65474,-10.95354 21.52163,-21.79237 30.99181,-33.81626 3.99219,-5.06871 4.92039,-6.60814 8.42364,-11.75102 7.37366,-12.11428 16.11219,-23.26529 25.31812,-34.02059 2.89934,-3.42239 6.01407,-6.64691 9.17635,-9.82325 22.26904,-22.26221 53.75256,9.23096 31.48352,31.49317 l 0,0 c -2.376,2.35787 -4.70199,4.76595 -6.86269,7.32633 -3.82794,4.44907 -7.6149,8.9374 -11.14788,13.62787 -2.82051,3.74458 -4.4999,6.27142 -7.10288,10.21892 -1.39389,2.11389 -2.76168,4.24489 -4.14251,6.36733 -4.53921,6.58178 -5.68734,8.47047 -10.8111,14.91913 -10.46378,13.16949 -22.30578,25.16389 -34.05855,37.16571 -9.13353,9.00387 -11.52819,11.46533 -20.88812,20.28582 -12.68752,11.95631 -25.8488,23.41599 -38.09669,35.83432 -13.02368,13.68521 -26.11734,27.43166 -37.23112,42.75208 -5.31655,7.65688 -10.893969,15.12233 -16.155147,22.81593 -15.292094,27.5258 -54.21941,5.8995 -38.927316,-21.62623 z"
       id="path3553"
       style="fill:#000000" />
    <path
       d="m 96.064812,744.3183 c 7.864518,7.2358 13.959148,16.14565 19.966418,24.91459 10.99699,16.59934 20.47555,34.13557 30.10864,51.543 1.84358,3.3829 3.7073,6.75491 5.53074,10.14871 6.05618,11.27183 11.96852,22.5616 18.73573,33.43572 6.32866,10.16942 10.70792,16.35612 17.54557,26.39027 10.11775,14.59652 20.43327,29.06641 31.0978,43.27011 8.45533,11.26134 17.21333,22.30193 25.82343,33.44506 5.33558,7.09197 10.69473,14.18665 15.5583,21.6169 2.91374,4.45143 5.54351,9.06737 8.16577,13.69244 0.21866,0.4075 2.0447,3.8485 2.59764,4.7808 0.048,0.081 0.23539,0.2918 0.18697,0.2112 -0.24689,-0.4109 -0.52289,-0.8035 -0.78433,-1.2053 20.0231,24.3021 -14.34524,52.619 -34.36834,28.3169 l 0,0 c -0.78906,-1.0421 -1.62156,-2.0527 -2.36716,-3.1263 -1.54139,-2.2196 -2.72529,-4.6618 -4.01157,-7.0292 -2.01624,-3.5632 -4.00165,-7.1575 -6.23661,-10.5907 -4.35566,-6.6909 -9.19043,-13.0581 -13.97852,-19.43943 -8.82249,-11.41831 -17.78865,-22.7362 -26.45083,-34.277 -10.98925,-14.64118 -21.61704,-29.55768 -32.04223,-44.60396 -7.62166,-11.2037 -11.94202,-17.28735 -19.00538,-28.68166 -7.04422,-11.36346 -13.24846,-23.13126 -19.56887,-34.89818 -1.77736,-3.30897 -3.59422,-6.59657 -5.39133,-9.89485 -8.961092,-16.19358 -17.755966,-32.51934 -27.925392,-47.99944 -2.998011,-4.41219 -3.490932,-5.26236 -6.557457,-9.33471 -1.666231,-2.21275 -3.590481,-4.25144 -5.229927,-6.47797 -0.01834,-0.0249 0.06182,0.002 0.09273,0.003 -24.190024,-20.1584 4.318188,-54.36825 28.508208,-34.2099 z"
       id="path3555"
       style="fill:#000000" />
  </g>
</svg>
