<?xml version="1.0" encoding="UTF-8" standalone="no"?>
<!-- Created with Inkscape (http://www.inkscape.org/) -->

<svg
   xmlns:dc="http://purl.org/dc/elements/1.1/"
   xmlns:cc="http://creativecommons.org/ns#"
   xmlns:rdf="http://www.w3.org/1999/02/22-rdf-syntax-ns#"
   xmlns:svg="http://www.w3.org/2000/svg"
   xmlns="http://www.w3.org/2000/svg"
   xmlns:sodipodi="http://sodipodi.sourceforge.net/DTD/sodipodi-0.dtd"
   xmlns:inkscape="http://www.inkscape.org/namespaces/inkscape"
   width="100mm"
   height="100mm"
   viewBox="0 0 354.33071 354.33071"
   id="svg2"
   version="1.1"
   inkscape:version="0.91 r13725"
   sodipodi:docname="cross11.svg">
  <defs
     id="defs4" />
  <sodipodi:namedview
     id="base"
     pagecolor="#ffffff"
     bordercolor="#666666"
     borderopacity="1.0"
     inkscape:pageopacity="0.0"
     inkscape:pageshadow="2"
     inkscape:zoom="1.28"
     inkscape:cx="258.90253"
     inkscape:cy="198.38663"
     inkscape:document-units="px"
     inkscape:current-layer="layer1"
     showgrid="false"
     inkscape:window-width="1315"
     inkscape:window-height="744"
     inkscape:window-x="51"
     inkscape:window-y="622"
     inkscape:window-maximized="1" />
  <metadata
     id="metadata7">
    <rdf:RDF>
      <cc:Work
         rdf:about="">
        <dc:format>image/svg+xml</dc:format>
        <dc:type
           rdf:resource="http://purl.org/dc/dcmitype/StillImage" />
        <dc:title></dc:title>
      </cc:Work>
    </rdf:RDF>
  </metadata>
  <g
     inkscape:label="Layer 1"
     inkscape:groupmode="layer"
     id="layer1"
     transform="translate(0,-698.0315)">
    <path
       style="fill:#000000"
       id="path3849"
       d="m 95.739819,713.78558 c 6.967641,4.99119 13.445501,10.69596 19.011071,17.22981 1.66679,1.95678 3.18366,4.03647 4.77548,6.0547 8.71501,12.07288 15.99351,25.07975 22.94721,38.21918 7.58634,14.7102 16.14059,28.88784 24.77252,42.99969 11.24934,18.25509 23.19698,36.06658 35.57376,53.57314 11.46972,16.584 24.64372,31.85315 37.52596,47.32906 2.92048,3.47428 5.78218,7.0105 8.87446,10.33697 0.3546,0.38146 1.32642,1.52372 1.18029,1.02382 -0.36779,-0.28247 -0.73558,-0.56495 -1.10336,-0.84742 -0.0411,-0.0333 -0.16968,-0.1254 -0.12327,-0.1 4.76488,2.60922 7.57429,5.71812 11.02609,9.75878 3.17055,4.06408 6.44671,8.04445 9.63888,12.09127 2.56552,3.46343 5.56352,6.55614 8.36746,9.82138 1.89491,2.25733 1.0678,1.31481 2.44901,2.85562 23.41686,26.48869 -14.04381,59.60512 -37.46067,33.11644 l 0,0 c -2.12244,-2.41713 -1.12426,-1.25088 -3.00223,-3.49216 -3.21531,-3.79473 -6.6943,-7.36598 -9.64661,-11.38112 -3.05895,-3.90066 -6.2324,-7.71136 -9.27049,-11.62876 1.23964,0.98765 2.42938,1.7857 3.7682,2.66433 0.18621,0.12221 -0.38477,-0.22451 -0.57707,-0.33691 -2.88577,-1.68673 -1.25937,-0.68147 -4.87545,-3.14159 -2.34954,-1.89814 -2.79547,-2.17659 -5.10096,-4.43 -4.54563,-4.44297 -8.43306,-9.51776 -12.57286,-14.32247 -13.72497,-16.48831 -27.71392,-32.7927 -39.93123,-50.4625 -13.00649,-18.41454 -25.5741,-37.14107 -37.39575,-56.34188 -9.17348,-15.0036 -18.24851,-30.0853 -26.320714,-45.71898 -5.597727,-10.60335 -11.424642,-21.10418 -18.270858,-30.96626 -1.585253,-2.11853 -2.819618,-3.91335 -4.628382,-5.81916 -2.51084,-2.64556 -5.378459,-4.95779 -8.303605,-7.12339 -28.964222,-20.27495 -0.291105,-61.23655 28.673118,-40.96159 z"
       inkscape:connector-curvature="0" />
    <path
       style="fill:#000000"
       id="path3851"
       d="m 238.776,744.49194 c -0.81102,6.83807 -2.91721,13.39548 -5.08005,19.90044 -2.77153,8.84246 -6.17488,17.46235 -9.52302,26.09692 -5.99707,14.90425 -12.46677,29.61204 -18.79532,44.37726 -7.13484,17.16001 -15.28277,33.85949 -23.81436,50.35978 -7.49235,14.6788 -15.60619,29.02605 -23.36068,43.56411 -4.10374,7.91905 -8.17027,15.85603 -12.39254,23.71283 -2.77085,5.23332 -5.89154,10.24166 -9.4645,14.96142 -1.7951,2.69344 -4.48256,4.80117 -6.13398,7.59105 -3.0171,4.14379 -5.73466,8.49373 -8.48776,12.81435 -2.36999,3.62253 -4.32604,7.48768 -6.45549,11.25091 -2.03476,3.51449 -3.84994,7.14689 -5.80261,10.70649 -17.054907,30.9698 -60.852857,6.8505 -43.797952,-24.11929 l 0,0 c 2.070472,-3.73768 3.948119,-7.57982 6.114844,-11.26498 2.562787,-4.49722 4.902477,-9.12588 7.77433,-13.44233 3.206862,-5.03257 6.394674,-10.08335 9.90213,-14.91467 2.356349,-3.22792 4.870612,-6.31659 7.45446,-9.36425 0.52075,-0.48098 0.236859,-0.18991 0.964918,-1.26812 1.436509,-2.12739 2.61479,-4.41365 3.89655,-6.63419 4.20383,-7.80881 8.22472,-15.71198 12.3202,-23.57783 7.66342,-14.3417 15.65214,-28.51029 23.05881,-42.98977 7.98365,-15.42362 15.60653,-31.03443 22.26708,-47.08311 6.0989,-14.22935 12.32983,-28.40474 18.13443,-42.75767 3.05631,-7.8805 6.18495,-15.73908 8.70099,-23.81438 1.12906,-3.38532 2.41302,-6.75334 2.90562,-10.3067 4.38529,-35.08232 53.99919,-28.88059 49.6139,6.20173 z"
       inkscape:connector-curvature="0" />
  </g>
</svg>
