<?xml version="1.0" encoding="UTF-8" standalone="no"?>
<!-- Created with Inkscape (http://www.inkscape.org/) -->

<svg
   xmlns:dc="http://purl.org/dc/elements/1.1/"
   xmlns:cc="http://creativecommons.org/ns#"
   xmlns:rdf="http://www.w3.org/1999/02/22-rdf-syntax-ns#"
   xmlns:svg="http://www.w3.org/2000/svg"
   xmlns="http://www.w3.org/2000/svg"
   xmlns:sodipodi="http://sodipodi.sourceforge.net/DTD/sodipodi-0.dtd"
   xmlns:inkscape="http://www.inkscape.org/namespaces/inkscape"
   width="100mm"
   height="100mm"
   viewBox="0 0 354.33071 354.33071"
   id="svg2"
   version="1.1"
   inkscape:version="0.91 r13725"
   sodipodi:docname="cross7.svg">
  <defs
     id="defs4" />
  <sodipodi:namedview
     id="base"
     pagecolor="#ffffff"
     bordercolor="#666666"
     borderopacity="1.0"
     inkscape:pageopacity="0.0"
     inkscape:pageshadow="2"
     inkscape:zoom="1.28"
     inkscape:cx="258.90253"
     inkscape:cy="198.38663"
     inkscape:document-units="px"
     inkscape:current-layer="layer1"
     showgrid="false"
     inkscape:window-width="1315"
     inkscape:window-height="744"
     inkscape:window-x="51"
     inkscape:window-y="622"
     inkscape:window-maximized="1" />
  <metadata
     id="metadata7">
    <rdf:RDF>
      <cc:Work
         rdf:about="">
        <dc:format>image/svg+xml</dc:format>
        <dc:type
           rdf:resource="http://purl.org/dc/dcmitype/StillImage" />
        <dc:title></dc:title>
      </cc:Work>
    </rdf:RDF>
  </metadata>
  <g
     inkscape:label="Layer 1"
     inkscape:groupmode="layer"
     id="layer1"
     transform="translate(0,-698.0315)">
    <path
       style="fill:#000000"
       id="path3719"
       d="m 75.523728,757.53913 c 0.526751,0.73408 1.026207,1.48854 1.580255,2.20225 4.79748,6.17994 9.944331,12.11066 14.837862,18.21404 7.46059,9.30509 9.951305,12.55006 17.521385,22.22215 20.54863,25.91374 41.23237,51.7414 62.57567,77.00891 5.04672,5.97462 10.19172,11.86553 15.28759,17.7983 20.48877,23.49818 41.56396,46.47358 63.03077,69.07865 2.04126,2.1353 3.59534,3.71965 5.51479,5.85491 0.49773,0.55369 1.03864,1.07616 1.46201,1.68859 1.19014,1.72159 2.24559,3.53251 3.36838,5.29877 13.56785,28.4153 -26.61745,47.6031 -40.18531,19.18784 l 0,0 c 7.04506,10.57036 3.62814,5.14286 2.57798,3.96956 -1.73381,-1.93724 -3.12531,-3.34354 -5.0293,-5.33545 -21.97725,-23.14441 -43.55241,-46.66923 -64.52384,-70.73186 -5.25498,-6.12121 -10.55942,-12.20032 -15.76494,-18.36364 -21.61838,-25.5961 -42.568856,-51.75928 -63.382486,-78.00974 -7.33839,-9.37775 -9.836374,-12.63077 -17.059651,-21.64216 -5.469787,-6.82384 -11.215703,-13.4535 -16.510671,-20.41619 -0.821612,-1.08039 -1.568489,-2.21562 -2.352734,-3.32343 -17.466593,-26.19989 19.585646,-50.90139 37.05224,-24.7015 z"
       inkscape:connector-curvature="0" />
    <path
       style="fill:#000000"
       id="path3721"
       d="m 262.7303,845.54715 c -1.68735,0.88094 -4.88128,2.33342 -6.39693,3.11613 -5.68652,2.93662 -11.12492,6.29724 -16.56737,9.65447 -17.52996,11.55381 -33.86364,24.78524 -50.39855,37.68985 -3.46145,2.6911 -6.91451,5.39303 -10.38434,8.07331 -11.84806,9.15206 -23.83149,18.06687 -36.20921,26.49591 -11.7814,8.02295 -14.04633,9.29544 -26.09791,16.87724 -15.11431,9.65423 -31.048697,17.88979 -47.120065,25.80309 -28.256945,13.89464 -47.90694,-26.06672 -19.649994,-39.96136 l 0,0 c 14.693236,-7.21434 29.267995,-14.71456 43.074121,-23.54498 11.278268,-7.08061 13.278598,-8.19408 24.326588,-15.70413 11.74672,-7.98501 23.10645,-16.44188 34.34421,-25.12227 3.44793,-2.66329 6.87916,-5.34814 10.31874,-8.02221 17.83701,-13.92081 35.47176,-28.18113 54.46986,-40.51735 10.35905,-6.35343 20.83315,-12.69075 32.20884,-17.08376 29.87247,-9.95749 43.95448,32.28857 14.08201,42.24606 z"
       inkscape:connector-curvature="0" />
  </g>
</svg>
