<?xml version="1.0" encoding="UTF-8" standalone="no"?>
<!-- Created with Inkscape (http://www.inkscape.org/) -->

<svg
   xmlns:dc="http://purl.org/dc/elements/1.1/"
   xmlns:cc="http://creativecommons.org/ns#"
   xmlns:rdf="http://www.w3.org/1999/02/22-rdf-syntax-ns#"
   xmlns:svg="http://www.w3.org/2000/svg"
   xmlns="http://www.w3.org/2000/svg"
   xmlns:sodipodi="http://sodipodi.sourceforge.net/DTD/sodipodi-0.dtd"
   xmlns:inkscape="http://www.inkscape.org/namespaces/inkscape"
   width="100mm"
   height="100mm"
   viewBox="0 0 354.33071 354.33071"
   id="svg2"
   version="1.1"
   inkscape:version="0.91 r13725"
   sodipodi:docname="cross13.svg">
  <defs
     id="defs4" />
  <sodipodi:namedview
     id="base"
     pagecolor="#ffffff"
     bordercolor="#666666"
     borderopacity="1.0"
     inkscape:pageopacity="0.0"
     inkscape:pageshadow="2"
     inkscape:zoom="1.28"
     inkscape:cx="258.90253"
     inkscape:cy="198.38663"
     inkscape:document-units="px"
     inkscape:current-layer="layer1"
     showgrid="false"
     inkscape:window-width="1315"
     inkscape:window-height="744"
     inkscape:window-x="51"
     inkscape:window-y="622"
     inkscape:window-maximized="1" />
  <metadata
     id="metadata7">
    <rdf:RDF>
      <cc:Work
         rdf:about="">
        <dc:format>image/svg+xml</dc:format>
        <dc:type
           rdf:resource="http://purl.org/dc/dcmitype/StillImage" />
        <dc:title></dc:title>
      </cc:Work>
    </rdf:RDF>
  </metadata>
  <g
     inkscape:label="Layer 1"
     inkscape:groupmode="layer"
     id="layer1"
     transform="translate(0,-698.0315)">
    <path
       style="fill:#000000"
       id="path3897"
       d="m 73.021961,717.87226 c 7.100198,5.34964 12.870795,12.38534 18.590412,19.13578 11.023317,13.14606 19.969637,27.8143 28.659737,42.5532 1.72833,3.0311 3.4583,6.06127 5.18501,9.0933 5.05932,8.88396 10.13148,17.7175 15.78424,26.24382 4.91185,7.40877 6.96167,10.07385 12.21564,17.32137 9.26338,12.46273 18.75984,24.7628 28.75375,36.65122 6.41969,7.63666 8.49038,9.85257 15.10526,17.27423 13.66539,15.41259 28.86996,29.33393 43.82689,43.46076 13.98482,12.76032 27.3634,26.16306 40.76474,39.52869 7.45882,7.40389 14.73471,15.00748 22.58248,22.00702 26.30664,23.62115 -7.09877,60.82445 -33.40541,37.20325 l 0,0 c -8.45815,-7.6273 -16.45951,-15.7321 -24.48551,-23.8081 -13.08005,-13.04565 -26.13328,-26.13238 -39.78855,-38.58122 -16.00317,-15.11501 -32.23108,-30.04893 -46.83346,-46.55664 -7.20401,-8.09486 -9.373,-10.41523 -16.37067,-18.75199 -10.65207,-12.69049 -20.78523,-25.81035 -30.65583,-39.11444 -6.00671,-8.31348 -8.20968,-11.17529 -13.843432,-19.71357 -7.884169,-11.94892 -14.879612,-24.43037 -21.919269,-36.8853 -7.240992,-12.31197 -14.613567,-24.6254 -23.760396,-35.64678 -2.612476,-3.09942 -5.258824,-6.12465 -8.012572,-9.09783 -0.395323,-0.42682 -0.795932,-0.84903 -1.179018,-1.28687 -0.061,-0.0697 -0.232401,-0.27763 -0.15105,-0.2333 0.423594,0.2308 0.801332,0.53728 1.201998,0.80592 -29.41742,-19.61161 -1.68241,-61.21413 27.73501,-41.60252 z"
       inkscape:connector-curvature="0" />
    <path
       style="fill:#000000"
       id="path3903"
       d="m 279.19918,740.34435 c -2.89392,5.18216 -6.23508,10.09245 -9.52104,15.02902 -7.86059,11.15717 -13.80735,23.51116 -19.80235,35.7284 -9.72347,19.67453 -18.29176,39.92037 -28.65333,59.2809 -2.52497,4.71787 -5.23345,9.33521 -7.85018,14.00282 -12.51378,22.1127 -27.33492,42.77678 -40.95384,64.19342 -2.09789,3.29907 -4.10342,6.65597 -6.15513,9.98396 -4.34665,7.40581 -8.5714,14.9347 -11.91468,22.86009 -2.12459,5.03643 -3.6423,10.3219 -5.21511,15.54651 -1.09306,4.52142 -2.74917,9.01002 -3.16297,13.67652 0.11833,2.62643 -0.0522,5.25823 -0.20159,7.88053 -0.28788,4.91088 -1.30354,9.71838 -2.49986,14.47488 -0.79682,4.545 -2.349,8.4036 -4.41882,12.5186 -16.87368,31.0689 -60.811795,7.2059 -43.938116,-23.863 l 0,0 c -0.418513,0.966 -0.856969,1.9354 -1.015021,2.9872 -0.02099,0.1397 0.07922,-0.2713 0.110052,-0.4091 0.898487,-4.0159 -0.111204,0.2783 0.774828,-3.4404 0.506778,-2.01073 0.891021,-3.24196 1.070717,-5.16143 0.218397,-3.67919 0.06969,-7.37015 0.485548,-11.04027 0.97233,-7.51101 2.80516,-14.86623 4.944552,-22.12568 1.53156,-5.02681 2.58997,-8.73117 4.42604,-13.7309 4.68486,-12.75716 11.02564,-24.80625 18.0109,-36.44233 2.27926,-3.68622 4.51172,-7.40179 6.83778,-11.05867 13.02869,-20.4829 27.20452,-40.2457 39.23374,-61.35908 2.28989,-4.05708 4.66701,-8.06615 6.86965,-12.17125 10.2721,-19.14426 18.68111,-39.2108 28.34121,-58.65684 6.97014,-14.16284 13.96592,-28.42241 23.05377,-41.38032 2.54547,-3.82405 5.16015,-7.61095 7.43538,-11.60573 17.17007,-30.90612 60.87794,-6.62398 43.70787,24.28215 z"
       inkscape:connector-curvature="0" />
  </g>
</svg>
