<?xml version="1.0" encoding="UTF-8" standalone="no"?>
<!-- Created with Inkscape (http://www.inkscape.org/) -->

<svg
   xmlns:dc="http://purl.org/dc/elements/1.1/"
   xmlns:cc="http://creativecommons.org/ns#"
   xmlns:rdf="http://www.w3.org/1999/02/22-rdf-syntax-ns#"
   xmlns:svg="http://www.w3.org/2000/svg"
   xmlns="http://www.w3.org/2000/svg"
   xmlns:sodipodi="http://sodipodi.sourceforge.net/DTD/sodipodi-0.dtd"
   xmlns:inkscape="http://www.inkscape.org/namespaces/inkscape"
   width="100mm"
   height="100mm"
   viewBox="0 0 354.33071 354.33071"
   id="svg2"
   version="1.1"
   inkscape:version="0.91 r13725"
   sodipodi:docname="cross10.svg">
  <defs
     id="defs4" />
  <sodipodi:namedview
     id="base"
     pagecolor="#ffffff"
     bordercolor="#666666"
     borderopacity="1.0"
     inkscape:pageopacity="0.0"
     inkscape:pageshadow="2"
     inkscape:zoom="1.28"
     inkscape:cx="258.90253"
     inkscape:cy="198.38663"
     inkscape:document-units="px"
     inkscape:current-layer="layer1"
     showgrid="false"
     inkscape:window-width="1315"
     inkscape:window-height="744"
     inkscape:window-x="51"
     inkscape:window-y="622"
     inkscape:window-maximized="1" />
  <metadata
     id="metadata7">
    <rdf:RDF>
      <cc:Work
         rdf:about="">
        <dc:format>image/svg+xml</dc:format>
        <dc:type
           rdf:resource="http://purl.org/dc/dcmitype/StillImage" />
        <dc:title></dc:title>
      </cc:Work>
    </rdf:RDF>
  </metadata>
  <g
     inkscape:label="Layer 1"
     inkscape:groupmode="layer"
     id="layer1"
     transform="translate(0,-698.0315)">
    <path
       style="fill:#000000"
       id="path3802"
       d="m 75.903858,715.73542 c 5.398125,4.2293 9.976564,9.38984 14.763667,14.26971 5.305824,5.40863 5.675598,5.68286 11.365235,11.1641 2.43528,2.29668 4.87835,4.58511 7.30582,6.89004 6.57553,6.24359 11.66203,11.09115 18.11056,17.59517 11.09871,11.19421 21.78218,22.79276 32.55376,34.29887 22.17922,24.11809 45.85099,46.78746 69.79553,69.13022 11.42325,10.92926 23.55886,21.1725 34.14433,32.95202 5.8411,6.49999 6.64386,7.90858 11.73585,14.77726 7.99305,11.9494 14.29304,24.89157 21.16169,37.4898 2.96171,5.15029 5.9928,10.33297 9.8783,14.85519 3.9228,3.94025 6.87341,8.61885 9.49319,13.48538 1.53452,2.92132 3.06577,5.802 4.4002,8.82299 12.80048,32.95673 -33.80741,51.05933 -46.60789,18.10263 l 0,0 c 2.72874,5.7599 -1.74401,-3.1315 -2.1482,-3.8485 -0.0581,-0.1494 -0.13131,-0.2938 -0.1742,-0.4482 -0.017,-0.061 0.079,-0.134 0.0424,-0.186 -0.98393,-1.4006 -2.361,-2.4975 -3.37505,-3.8693 -5.89309,-7.13103 -10.9575,-14.88777 -15.41511,-22.9928 -5.80302,-10.65789 -11.20029,-21.54685 -17.59635,-31.87133 -3.24343,-4.51588 -3.88119,-5.62978 -7.72952,-9.96903 -9.814,-11.06592 -21.33512,-20.46029 -31.92264,-30.74462 -24.76533,-23.11252 -49.23562,-46.57525 -72.18397,-71.51488 -10.31949,-11.02347 -20.5447,-22.14872 -31.171324,-32.8796 -6.179564,-6.24019 -10.982792,-10.8141 -17.302253,-16.81528 -2.561451,-2.43245 -5.138222,-4.84871 -7.707334,-7.27306 -7.26521,-7.01568 -14.382905,-14.17927 -21.416691,-21.42078 -28.284272,-21.2132 1.715729,-61.2132 30,-40 z"
       inkscape:connector-curvature="0" />
    <path
       style="fill:#000000"
       id="path3804"
       d="m 309.61652,781.56254 c -17.52826,14.43477 -34.84626,29.12138 -52.2054,43.75831 -23.1813,19.09056 -45.66304,38.99683 -67.64683,59.4484 -8.11814,7.9456 -16.52004,15.75639 -23.39144,24.85211 -2.65009,3.50795 -3.93533,5.71123 -6.28466,9.42537 -7.8447,13.26507 -15.58845,26.58857 -23.49661,39.81665 -6.72542,10.87012 -13.30544,21.84373 -20.39921,32.48118 -4.47989,6.71782 -6.29328,9.13054 -10.89086,15.52804 -3.72277,5.3481 -7.807877,10.4425 -11.343615,15.9194 -19.396177,29.5599 -61.200204,2.1296 -41.804027,-27.43031 l 0,0 c 3.995459,-6.03504 8.331331,-11.82431 12.563676,-17.69426 3.831423,-5.31603 5.811928,-7.9697 9.512394,-13.51026 6.767518,-10.13273 13.029242,-20.59658 19.446412,-30.95082 8.17314,-13.67028 16.14313,-27.45896 24.3107,-41.13172 3.85628,-5.96689 5.21467,-8.33646 9.62309,-14.03573 8.38179,-10.83611 18.25982,-20.39916 28.10143,-29.88129 22.58204,-20.99947 45.66395,-41.4521 69.46867,-61.06203 17.50694,-14.76153 34.97311,-29.57228 52.65091,-44.12956 27.29186,-22.47564 59.07722,16.12087 31.78537,38.59652 z"
       inkscape:connector-curvature="0" />
  </g>
</svg>
