<?xml version="1.0" encoding="UTF-8" standalone="no"?>
<!-- Created with Inkscape (http://www.inkscape.org/) -->

<svg
   xmlns:dc="http://purl.org/dc/elements/1.1/"
   xmlns:cc="http://creativecommons.org/ns#"
   xmlns:rdf="http://www.w3.org/1999/02/22-rdf-syntax-ns#"
   xmlns:svg="http://www.w3.org/2000/svg"
   xmlns="http://www.w3.org/2000/svg"
   xmlns:sodipodi="http://sodipodi.sourceforge.net/DTD/sodipodi-0.dtd"
   xmlns:inkscape="http://www.inkscape.org/namespaces/inkscape"
   width="100mm"
   height="100mm"
   viewBox="0 0 354.33071 354.33071"
   id="svg2"
   version="1.1"
   inkscape:version="0.91 r13725"
   sodipodi:docname="circle7.svg">
  <defs
     id="defs4" />
  <sodipodi:namedview
     id="base"
     pagecolor="#ffffff"
     bordercolor="#666666"
     borderopacity="1.0"
     inkscape:pageopacity="0.0"
     inkscape:pageshadow="2"
     inkscape:zoom="1.28"
     inkscape:cx="258.90253"
     inkscape:cy="198.38663"
     inkscape:document-units="px"
     inkscape:current-layer="layer1"
     showgrid="false"
     inkscape:window-width="1315"
     inkscape:window-height="744"
     inkscape:window-x="51"
     inkscape:window-y="622"
     inkscape:window-maximized="1" />
  <metadata
     id="metadata7">
    <rdf:RDF>
      <cc:Work
         rdf:about="">
        <dc:format>image/svg+xml</dc:format>
        <dc:type
           rdf:resource="http://purl.org/dc/dcmitype/StillImage" />
        <dc:title></dc:title>
      </cc:Work>
    </rdf:RDF>
  </metadata>
  <g
     inkscape:label="Layer 1"
     inkscape:groupmode="layer"
     id="layer1"
     transform="translate(0,-698.0315)">
    <path
       style="fill:#000000"
       id="path4062"
       d="m 210.07494,810.98152 c 0.0889,0.16484 0.40546,0.62019 0.2666,0.49454 -0.44604,-0.40361 -0.79943,-0.89912 -1.20484,-1.34353 -0.73308,-0.80359 -1.4679,-1.60565 -2.21056,-2.4004 -3.54888,-3.79773 -7.12755,-7.56877 -10.69746,-11.34673 -4.90301,-5.34206 -11.12545,-8.81602 -17.66218,-11.7227 -0.48455,-0.17984 -2.13178,-0.87122 -2.8867,-0.94081 -0.0754,-0.007 0.0737,0.15333 0.14677,0.17321 0.66389,0.18075 1.33718,0.34632 2.02158,0.41714 1.98765,0.20567 2.50863,0.0194 4.39177,-0.25622 0.1559,-0.005 0.53482,-0.15629 0.46771,-0.0155 -0.13212,0.2772 -0.47626,0.3888 -0.72886,0.56341 -0.83424,0.57663 -1.70184,1.10441 -2.53029,1.68935 -3.38016,2.38665 -6.56487,5.06432 -9.79575,7.64392 -7.67056,6.5943 -15.65796,12.85655 -22.92546,19.90763 -1.35113,1.3109 -2.63322,2.69114 -3.94983,4.03671 -6.93854,7.26999 -12.06525,15.95316 -16.34408,24.99483 -1.05404,2.22732 -1.99013,4.50857 -2.9852,6.76286 -3.45502,8.70233 -6.38491,17.81265 -7.09198,27.21272 -0.35562,4.72776 0.0243,6.01154 0.59339,10.58184 0.97703,3.71418 1.26571,5.55535 2.97698,9.04191 3.56353,7.26037 10.04316,13.42776 15.70735,19.00865 6.78089,6.48621 14.26954,12.22171 22.46463,16.81014 3.31908,1.85835 5.30925,2.65164 8.74723,4.17972 7.61871,3.43052 15.81852,5.01258 23.98037,6.51884 7.61142,1.35619 15.36674,1.72755 23.0528,0.78064 1.53256,-0.1888 3.04592,-0.50985 4.56888,-0.76478 7.90821,-1.67419 15.204,-5.4839 21.74875,-10.16772 1.45388,-1.04048 2.82217,-2.19563 4.23325,-3.29345 3.85788,-3.38518 8.03169,-6.88776 9.97727,-11.79461 0.52114,-1.31433 0.77759,-2.73021 1.08341,-4.10109 0.32217,-2.46053 0.0106,-4.99694 -0.61857,-7.39258 -0.26381,-1.00449 -1.22699,-3.21365 -1.56577,-4.03106 -3.00274,-5.80585 -6.41385,-11.39402 -9.33168,-17.24766 -2.92766,-5.87336 -3.41854,-7.31189 -5.93753,-13.31269 -4.40157,-10.82134 -7.56955,-22.07779 -10.94433,-33.24472 -0.96704,-3.01005 -1.82364,-6.14062 -3.48119,-8.82528 -18.39851,-30.19098 24.29798,-56.2104 42.69648,-26.01942 l 0,0 c 3.7808,6.39407 6.60819,13.23876 8.64882,20.38694 2.88559,9.55757 5.56076,19.2024 9.2435,28.49435 1.43864,3.50138 2.28977,5.75267 3.96772,9.13413 3.91814,7.89597 8.84265,15.27959 12.10975,23.4974 2.09196,6.01407 2.86383,7.52369 4.05557,13.84846 1.81223,9.61785 1.45171,19.47408 -0.91509,28.95774 -2.08423,6.53702 -2.49405,8.78556 -5.80242,15.0152 -5.58077,10.5085 -13.84196,19.11922 -23.04357,26.52772 -2.47551,1.83883 -4.88205,3.77436 -7.42654,5.5165 -12.43407,8.5132 -26.3497,14.78697 -41.21462,17.48869 -2.78315,0.39688 -5.55409,0.89164 -8.34945,1.19065 -11.96303,1.27964 -24.04411,0.60436 -35.87246,-1.48159 -12.14842,-2.26208 -24.2522,-4.99451 -35.55239,-10.16178 -6.09041,-2.80676 -8.19981,-3.62094 -14.15851,-7.05147 -11.5961,-6.6761 -22.20829,-14.93142 -31.82971,-24.21228 -6.708429,-6.84428 -9.836385,-9.57533 -15.585785,-17.27898 -9.665725,-12.95114 -15.062405,-25.67341 -17.442067,-41.64942 -0.262641,-3.69946 -0.746006,-7.38984 -0.787924,-11.09837 -0.200987,-17.78149 4.802031,-35.15288 11.450525,-51.47265 1.378116,-3.05326 2.676779,-6.14365 4.134347,-9.15979 6.57217,-13.59977 14.745933,-26.4253 25.266674,-37.3247 1.86859,-1.87926 3.69765,-3.79866 5.60578,-5.63776 8.15324,-7.85828 17.04107,-14.91182 25.65208,-22.24914 8.49389,-6.77724 17.01913,-13.79905 27.17075,-17.96398 5.85162,-1.69063 7.16123,-2.49624 13.32072,-2.57007 7.08984,-0.085 13.86099,2.07168 20.30057,4.81879 3.9561,1.82018 6.07643,2.7101 10.00817,4.92224 8.59958,4.83842 16.47815,10.84928 23.30895,17.98021 6.52847,6.90955 13.32415,13.64135 19.10616,21.20081 19.61162,29.41743 -21.9909,57.15244 -41.60251,27.73502 z"
       inkscape:connector-curvature="0" />
  </g>
</svg>
