<?xml version="1.0" encoding="UTF-8" standalone="no"?>
<!-- Created with Inkscape (http://www.inkscape.org/) -->

<svg
   xmlns:dc="http://purl.org/dc/elements/1.1/"
   xmlns:cc="http://creativecommons.org/ns#"
   xmlns:rdf="http://www.w3.org/1999/02/22-rdf-syntax-ns#"
   xmlns:svg="http://www.w3.org/2000/svg"
   xmlns="http://www.w3.org/2000/svg"
   xmlns:sodipodi="http://sodipodi.sourceforge.net/DTD/sodipodi-0.dtd"
   xmlns:inkscape="http://www.inkscape.org/namespaces/inkscape"
   width="100mm"
   height="100mm"
   viewBox="0 0 354.33071 354.33071"
   id="svg2"
   version="1.1"
   inkscape:version="0.91 r13725"
   sodipodi:docname="circle11.svg">
  <defs
     id="defs4" />
  <sodipodi:namedview
     id="base"
     pagecolor="#ffffff"
     bordercolor="#666666"
     borderopacity="1.0"
     inkscape:pageopacity="0.0"
     inkscape:pageshadow="2"
     inkscape:zoom="1.28"
     inkscape:cx="258.90253"
     inkscape:cy="198.38663"
     inkscape:document-units="px"
     inkscape:current-layer="layer1"
     showgrid="false"
     inkscape:window-width="1315"
     inkscape:window-height="744"
     inkscape:window-x="51"
     inkscape:window-y="622"
     inkscape:window-maximized="1" />
  <metadata
     id="metadata7">
    <rdf:RDF>
      <cc:Work
         rdf:about="">
        <dc:format>image/svg+xml</dc:format>
        <dc:type
           rdf:resource="http://purl.org/dc/dcmitype/StillImage" />
        <dc:title></dc:title>
      </cc:Work>
    </rdf:RDF>
  </metadata>
  <g
     inkscape:label="Layer 1"
     inkscape:groupmode="layer"
     id="layer1"
     transform="translate(0,-698.0315)">
    <path
       style="fill:#000000"
       id="path4164"
       d="M 81.385187,971.82152 C 74.22933,967.16921 68.081284,961.23588 62.194039,955.10931 56.045125,948.32078 50.323432,941.15337 45.984422,933.04933 c -3.26841,-6.10446 -3.977523,-8.53676 -6.466393,-14.98748 -4.997098,-14.46643 -6.508386,-29.72063 -5.650857,-44.94789 0.180479,-3.20479 0.557561,-6.39547 0.836341,-9.59321 1.712016,-17.52802 7.480639,-34.21932 13.501528,-50.64974 3.041118,-8.60536 7.021464,-16.80177 11.646729,-24.65364 4.462741,-7.23292 9.907687,-13.97008 16.728119,-19.12151 1.67248,-1.26321 3.473417,-2.34669 5.210126,-3.52003 8.001646,-4.99533 16.94497,-7.90742 25.935995,-10.51218 6.87564,-1.75653 13.68157,-3.76165 20.52124,-5.64876 8.07676,-2.1777 16.4307,-3.08676 24.7903,-2.87861 2.72668,0.0679 5.44645,0.30607 8.16968,0.4591 19.30637,1.39193 38.12826,6.2191 56.57782,11.8442 9.26598,3.00429 18.5993,6.04877 27.30613,10.47954 5.55342,2.82607 6.60428,3.72179 11.78612,7.12902 9.03429,6.44201 17.05999,14.2632 23.66159,23.18994 1.49412,2.02036 2.85245,4.1377 4.27867,6.20655 7.525,11.73827 13.1863,24.65536 16.67583,38.16194 0.75688,2.92956 1.31057,5.90789 1.96585,8.86184 2.89359,15.05156 2.99896,30.48612 1.12616,45.67097 -0.35471,2.87603 -0.86131,5.73128 -1.29197,8.59691 -1.68509,9.84427 -3.6081,19.68656 -6.62084,29.22471 -2.02901,6.42373 -2.64621,7.54472 -5.20398,13.73753 -5.833,13.29298 -14.65227,24.82186 -23.51171,36.19249 -7.13024,9.0214 -14.55858,17.85738 -23.02293,25.67268 -6.18671,5.7123 -7.65992,6.5651 -14.28354,11.5444 -9.26134,6.2141 -19.5072,11.038 -30.48261,13.2857 -6.59187,1.35 -8.36654,1.1913 -14.90216,1.4973 -2.71471,-0.2004 -5.44592,-0.2415 -8.14413,-0.6013 -8.03442,-1.0713 -15.69052,-3.7212 -23.2834,-6.4324 -6.69903,-2.392 -8.66411,-3.1989 -15.42392,-5.8029 -11.65739,-4.5702 -23.43896,-8.8702 -34.80996,-14.1357 -8.420041,-3.899 -10.463567,-5.1553 -18.621151,-9.5436 -12.589192,-7.80051 -6.420162,-3.73865 -18.509994,-12.18112 -28.921357,-20.33606 -0.161834,-61.23703 28.759524,-40.90098 l 0,0 c 8.976191,6.36924 4.465555,3.34413 13.519821,9.0933 6.31784,3.43271 8.45494,4.7198 14.96356,7.75562 10.66343,4.97376 21.75381,8.94794 32.6897,13.26159 8.98672,3.47032 17.97995,7.15918 27.33716,9.51066 1.10274,0.0219 3.2321,0.11381 4.37206,-0.046 4.56456,-0.63977 8.8537,-2.54783 12.75629,-4.92487 4.00627,-2.90403 5.32052,-3.69839 9.07465,-7.0985 6.89148,-6.2416 12.81655,-13.43248 18.58035,-20.69837 6.15231,-7.88425 12.51308,-15.72927 16.84448,-24.8125 1.52311,-3.52558 2.06498,-4.5601 3.2693,-8.26082 2.43409,-7.47968 3.88257,-15.23604 5.23912,-22.96756 0.31897,-1.98877 0.69208,-3.9696 0.9569,-5.96629 1.32699,-10.00505 1.53583,-20.20442 -0.26029,-30.16373 -0.37451,-1.83703 -0.68746,-3.68769 -1.12353,-5.51108 -2.02149,-8.45287 -5.44597,-16.5763 -10.01782,-23.95874 -0.75721,-1.15115 -1.47794,-2.32714 -2.27162,-3.45346 -3.37021,-4.78274 -7.51285,-9.01017 -12.19123,-12.51607 -2.23774,-1.58225 -2.86858,-2.12693 -5.32486,-3.44935 -6.45964,-3.47776 -13.61377,-5.48432 -20.51806,-7.84374 -14.68713,-4.53387 -29.67608,-8.50907 -45.04879,-9.74574 -5.53554,-0.40642 -11.12397,-0.83138 -16.53569,0.71693 -6.63952,1.83142 -13.24383,3.78761 -19.92164,5.47931 -4.39958,1.27101 -8.87842,2.42718 -12.93078,4.62827 -2.69899,0.79945 -4.48205,4.09789 -5.97229,6.23182 -3.177097,5.05247 -5.500827,10.57946 -7.580848,16.15795 -4.547625,12.34408 -9.176819,24.83811 -10.645613,37.99278 -0.216453,2.18153 -0.495769,4.35774 -0.64936,6.5446 -0.611328,8.70419 -0.206806,17.45709 2.476104,25.81716 1.158438,3.23671 1.548023,4.61173 2.987113,7.61965 2.274852,4.7548 5.760867,8.68138 9.183693,12.63489 3.222971,3.4959 6.651571,6.85912 10.629691,9.49817 29.41742,19.61161 1.68241,61.21412 -27.735013,41.60251 z"
       inkscape:connector-curvature="0" />
  </g>
</svg>
