<?xml version="1.0" encoding="UTF-8" standalone="no"?>
<!-- Created with Inkscape (http://www.inkscape.org/) -->

<svg
   xmlns:dc="http://purl.org/dc/elements/1.1/"
   xmlns:cc="http://creativecommons.org/ns#"
   xmlns:rdf="http://www.w3.org/1999/02/22-rdf-syntax-ns#"
   xmlns:svg="http://www.w3.org/2000/svg"
   xmlns="http://www.w3.org/2000/svg"
   xmlns:sodipodi="http://sodipodi.sourceforge.net/DTD/sodipodi-0.dtd"
   xmlns:inkscape="http://www.inkscape.org/namespaces/inkscape"
   width="100mm"
   height="100mm"
   viewBox="0 0 354.33071 354.33071"
   id="svg2"
   version="1.1"
   inkscape:version="0.91 r13725"
   sodipodi:docname="circle4.svg">
  <defs
     id="defs4" />
  <sodipodi:namedview
     id="base"
     pagecolor="#ffffff"
     bordercolor="#666666"
     borderopacity="1.0"
     inkscape:pageopacity="0.0"
     inkscape:pageshadow="2"
     inkscape:zoom="1.28"
     inkscape:cx="258.90253"
     inkscape:cy="198.38663"
     inkscape:document-units="px"
     inkscape:current-layer="layer1"
     showgrid="false"
     inkscape:window-width="1315"
     inkscape:window-height="744"
     inkscape:window-x="51"
     inkscape:window-y="622"
     inkscape:window-maximized="1" />
  <metadata
     id="metadata7">
    <rdf:RDF>
      <cc:Work
         rdf:about="">
        <dc:format>image/svg+xml</dc:format>
        <dc:type
           rdf:resource="http://purl.org/dc/dcmitype/StillImage" />
        <dc:title></dc:title>
      </cc:Work>
    </rdf:RDF>
  </metadata>
  <g
     inkscape:label="Layer 1"
     inkscape:groupmode="layer"
     id="layer1"
     transform="translate(0,-698.0315)">
    <path
       style="fill:#000000"
       id="path3995"
       d="m 174.73038,813.22918 c -2.13156,-2.30561 -4.48859,-4.34802 -7.01043,-6.20969 -1.22488,-0.69988 -2.52866,-1.68243 -4.00266,-1.74416 -3.13587,-0.67457 -6.23195,-0.75096 -9.41205,-0.48671 -2.27372,0.6309 -4.83673,0.59984 -6.96779,1.69365 -0.15872,0.0815 -0.25318,0.25466 -0.40114,0.35433 -0.44968,0.30292 -0.92452,0.56672 -1.38678,0.85008 -7.18998,4.50482 -14.05801,9.50585 -20.96732,14.42501 -5.37087,3.88134 -10.92966,7.53888 -16.02601,11.78839 -2.17544,1.81394 -3.436,3.13317 -5.46308,5.12231 -5.957534,6.40426 -11.220853,13.42784 -16.125356,20.65932 -2.456323,4.05056 -4.417942,8.41268 -5.753658,12.96218 -0.763459,2.60037 -1.084351,4.6091 -1.601946,7.28011 -0.495982,3.57709 -0.772911,7.3185 0.245741,10.8389 0.350784,1.21229 0.768075,1.9881 1.300535,3.12722 2.111838,3.15423 5.071588,5.54179 8.341534,7.40227 1.712063,0.90064 3.72714,2.01603 5.521267,2.71827 0.758776,0.29699 1.556802,0.48236 2.340706,0.70471 4.877867,1.38361 9.808557,2.28076 14.791637,3.20703 16.53691,3.16659 33.35984,4.18467 50.14892,4.88544 11.98169,0.17159 24.01212,0.0667 35.8947,-1.66002 1.65652,-0.24072 3.29722,-0.57996 4.94583,-0.86994 6.16939,-1.33517 12.56403,-2.86167 17.92083,-6.35051 3.34406,-2.47727 6.21793,-5.49919 9.07539,-8.5045 4.34188,-4.93485 8.91943,-9.69262 12.78952,-15.01519 2.08825,-3.3917 3.07619,-7.15903 2.90961,-11.11846 -1.00398,-7.17368 -4.73963,-13.59996 -8.12821,-19.87332 -7.61844,-13.124 -16.59846,-25.38928 -25.17435,-37.8912 -7.46182,-10.555 -14.76899,-21.25408 -22.93224,-31.29036 -5.2682,-6.47696 -7.0552,-8.19269 -12.72712,-14.2838 -2.14061,-2.06558 -4.28121,-4.13117 -6.42181,-6.19675 -25.34816,-24.64694 9.50787,-60.49464 34.85602,-35.84771 l 0,0 c 2.74765,2.68744 5.49529,5.37488 8.24294,8.06232 7.19542,7.79784 8.85528,9.34567 15.55284,17.6143 8.75833,10.81281 16.64877,22.29658 24.66185,33.65981 9.62482,14.03294 19.70446,27.80511 28.06435,42.65306 3.08118,5.83387 4.85479,8.86837 7.39337,14.96498 4.1072,9.86376 6.67527,20.26791 6.54598,31.00433 -0.18293,2.484 -0.23349,4.98132 -0.5488,7.45202 -1.43243,11.22419 -5.92736,21.79093 -12.28621,31.07982 -1.17873,1.54891 -2.32215,3.12532 -3.53618,4.64672 -4.11986,5.16292 -8.72129,9.9388 -13.0831,14.89203 -6.10503,6.38395 -12.49131,12.56398 -20.07868,17.19156 -1.58432,0.8937 -3.13665,1.84664 -4.75295,2.6811 -9.38804,4.84683 -19.67096,7.74993 -29.9963,9.76815 -2.48465,0.40982 -4.96019,0.87936 -7.45396,1.22948 -14.51733,2.03819 -29.21016,2.22639 -43.84156,1.95761 -19.18724,-0.8178 -38.40208,-2.07307 -57.29725,-5.70528 -6.028506,-1.14757 -9.849081,-1.765 -15.7488,-3.30846 -8.881153,-2.32346 -17.378325,-5.80362 -25.157422,-10.70506 -2.047956,-1.40551 -4.170045,-2.70869 -6.143868,-4.21654 -9.332768,-7.12952 -16.738147,-16.44082 -21.436585,-27.20052 -2.036576,-5.6892 -2.832902,-7.22755 -3.972109,-13.26884 -1.779131,-9.43483 -1.450451,-19.10015 0.202047,-28.522 1.2686,-5.95967 1.532984,-7.89643 3.414341,-13.80549 2.757068,-8.65954 6.728473,-16.90598 11.625879,-24.55162 6.862318,-9.99491 14.172485,-19.73818 22.671449,-28.41619 4.127801,-3.9503 4.920822,-4.85257 9.364399,-8.5194 5.708684,-4.7108 11.857268,-8.85694 17.866836,-13.16379 8.544383,-6.08318 17.031023,-12.2971 26.080223,-17.61903 4.65477,-2.44313 5.73483,-3.21153 10.80303,-5.01621 6.08826,-2.16791 12.56834,-3.12157 18.95326,-3.87298 4.22638,-0.20438 5.46953,-0.36406 9.72523,-0.16485 5.53,0.25887 10.9991,1.21016 16.37193,2.51021 1.40765,0.43304 2.83077,0.81868 4.22296,1.2991 5.78534,1.99641 11.14729,5.04571 16.10768,8.59903 4.32681,3.3002 8.49667,6.79425 12.23822,10.75839 25,25 -10.35533,60.35534 -35.35533,35.35534 z"
       inkscape:connector-curvature="0" />
  </g>
</svg>
