<?xml version="1.0" encoding="UTF-8" standalone="no"?>
<!-- Created with Inkscape (http://www.inkscape.org/) -->

<svg
   xmlns:dc="http://purl.org/dc/elements/1.1/"
   xmlns:cc="http://creativecommons.org/ns#"
   xmlns:rdf="http://www.w3.org/1999/02/22-rdf-syntax-ns#"
   xmlns:svg="http://www.w3.org/2000/svg"
   xmlns="http://www.w3.org/2000/svg"
   xmlns:sodipodi="http://sodipodi.sourceforge.net/DTD/sodipodi-0.dtd"
   xmlns:inkscape="http://www.inkscape.org/namespaces/inkscape"
   width="100mm"
   height="100mm"
   viewBox="0 0 354.33071 354.33071"
   id="svg2"
   version="1.1"
   inkscape:version="0.91 r13725"
   sodipodi:docname="circle5.svg">
  <defs
     id="defs4" />
  <sodipodi:namedview
     id="base"
     pagecolor="#ffffff"
     bordercolor="#666666"
     borderopacity="1.0"
     inkscape:pageopacity="0.0"
     inkscape:pageshadow="2"
     inkscape:zoom="1.28"
     inkscape:cx="258.90253"
     inkscape:cy="198.38663"
     inkscape:document-units="px"
     inkscape:current-layer="layer1"
     showgrid="false"
     inkscape:window-width="1315"
     inkscape:window-height="744"
     inkscape:window-x="51"
     inkscape:window-y="622"
     inkscape:window-maximized="1" />
  <metadata
     id="metadata7">
    <rdf:RDF>
      <cc:Work
         rdf:about="">
        <dc:format>image/svg+xml</dc:format>
        <dc:type
           rdf:resource="http://purl.org/dc/dcmitype/StillImage" />
        <dc:title></dc:title>
      </cc:Work>
    </rdf:RDF>
  </metadata>
  <g
     inkscape:label="Layer 1"
     inkscape:groupmode="layer"
     id="layer1"
     transform="translate(0,-698.0315)">
    <path
       style="fill:#000000"
       id="path4020"
       d="m 87.967512,772.20823 c 11.281899,-3.85358 22.547468,-7.75135 34.006178,-11.05732 4.20534,-1.21329 8.43889,-2.32655 12.65833,-3.48982 19.54281,-4.72023 39.43497,-9.36237 59.65324,-9.56546 3.37123,-0.0339 6.7395,0.21068 10.10925,0.31602 9.79196,0.75204 19.22683,3.24238 28.21743,7.15074 7.3056,3.17586 14.01418,7.3885 20.71809,11.63888 8.24848,5.63257 16.17666,11.81518 23.446,18.67832 4.36159,4.11786 7.66967,7.73159 11.7887,12.08069 11.24192,12.46807 22.59672,24.92451 32.55659,38.4674 2.25588,3.06743 4.35177,6.24936 6.52766,9.37404 7.42653,11.66918 13.97227,23.99002 18.31552,37.16247 2.57166,7.79947 2.8784,10.32867 4.53684,18.23782 2.1758,11.52126 2.31717,23.25971 1.28962,34.90823 -0.5789,6.56246 -1.20897,10.22667 -2.15937,16.72197 -1.73017,11.53744 -3.67343,23.1015 -7.48453,34.16856 -2.73604,7.94521 -4.1867,10.51618 -7.71584,18.01543 -5.33829,9.9961 -11.19104,19.8648 -18.773,28.3518 -0.96114,1.0759 -1.98939,2.0899 -2.98409,3.1348 -4.73534,4.5419 -10.3102,7.641 -16.66612,9.2856 -4.94044,1.2783 -10.09272,1.2431 -15.14794,1.3234 -13.68272,0.056 -27.3632,-0.1281 -41.03299,-0.725 -13.71443,-0.6743 -27.57819,-1.4615 -40.86505,-5.2187 -2.99216,-0.8461 -5.9071,-1.9447 -8.86065,-2.917 -14.11376,-5.6429 -27.12224,-13.6786 -39.06156,-23.0389 -2.27721,-1.7853 -4.47185,-3.6734 -6.70778,-5.5102 -14.68474,-12.2549 -25.92327,-27.79263 -36.72112,-43.41065 -7.672552,-11.01399 -14.492812,-22.62159 -19.889075,-34.92442 -3.1796,-7.2491 -3.964953,-9.913 -6.56121,-17.29383 -4.548715,-13.55477 -7.440418,-27.58369 -9.890914,-41.64621 -1.519256,-9.55441 -2.465789,-19.18077 -3.02109,-28.83527 -0.375663,-5.07062 -0.317707,-10.11284 0.168609,-15.16873 4.03028,-35.12487 53.70435,-29.4252 49.67408,5.69968 l 0,0 c -0.50509,1.06553 0.23885,5.32604 0.0771,6.63779 0.43155,7.74707 1.18964,15.46847 2.36895,23.14012 1.95213,11.37744 4.24708,22.73769 7.8405,33.72469 1.83177,5.32877 2.44877,7.4364 4.67341,12.64099 4.17778,9.77399 9.62585,18.92468 15.71059,27.62448 8.15522,11.84028 16.42643,23.85205 27.42634,33.27327 9.24305,7.7056 18.97333,14.8953 30.05668,19.765 4.32279,1.57473 4.96376,1.97375 9.54964,2.95294 8.61771,1.84008 17.49399,2.02619 26.25376,2.55435 12.71814,0.57747 25.44815,0.70736 38.17874,0.67964 0.97001,-0.007 1.93998,-0.0217 2.91001,-0.0218 0.34362,-7e-5 1.12627,-0.30897 1.03065,0.0211 -0.11262,0.38875 -0.77618,0.23457 -1.1498,0.3902 -2.2865,0.95241 -4.53212,2.04423 -6.09664,4.04426 1.52333,-1.3775 2.84245,-3.04618 4.05557,-4.69385 3.12084,-4.23877 5.798,-8.77982 8.33481,-13.38533 2.0373,-4.17347 3.43863,-6.75946 5.02498,-11.10378 3.15676,-8.64503 4.40688,-17.80572 5.83292,-26.84895 1.70457,-11.37792 3.39964,-22.93362 1.32671,-34.39094 -0.87228,-4.57017 -1.11911,-6.54057 -2.50075,-11.01864 -2.83599,-9.19185 -7.46502,-17.70734 -12.47385,-25.87146 -1.63029,-2.38047 -3.18732,-4.81281 -4.89088,-7.14141 -8.97182,-12.26357 -19.26628,-23.49692 -29.40138,-34.78752 -1.5449,-1.63801 -6.7661,-7.23693 -8.7239,-9.10421 -5.30345,-5.05825 -11.07527,-9.64827 -17.07075,-13.85194 -7.45304,-4.79797 -15.02915,-9.84447 -24.02525,-10.97927 -1.99079,-0.10764 -3.9787,-0.31177 -5.97237,-0.32293 -5.55657,-0.0311 -10.49285,0.45125 -16.03185,1.22217 -10.95919,1.5253 -21.78921,3.89838 -32.51149,6.59881 -3.82965,1.05093 -7.67145,2.05858 -11.48896,3.15279 -11.0002,3.15296 -21.79694,6.93445 -32.6259,10.61933 -33.54103,11.18027 -49.352418,-36.2539 -15.811398,-47.43424 z"
       inkscape:connector-curvature="0" />
  </g>
</svg>
