<?xml version="1.0" encoding="UTF-8" standalone="no"?>
<!-- Created with Inkscape (http://www.inkscape.org/) -->

<svg
   xmlns:dc="http://purl.org/dc/elements/1.1/"
   xmlns:cc="http://creativecommons.org/ns#"
   xmlns:rdf="http://www.w3.org/1999/02/22-rdf-syntax-ns#"
   xmlns:svg="http://www.w3.org/2000/svg"
   xmlns="http://www.w3.org/2000/svg"
   xmlns:sodipodi="http://sodipodi.sourceforge.net/DTD/sodipodi-0.dtd"
   xmlns:inkscape="http://www.inkscape.org/namespaces/inkscape"
   width="100mm"
   height="100mm"
   viewBox="0 0 354.33071 354.33071"
   id="svg2"
   version="1.1"
   inkscape:version="0.91 r13725"
   sodipodi:docname="circle9.svg">
  <defs
     id="defs4" />
  <sodipodi:namedview
     id="base"
     pagecolor="#ffffff"
     bordercolor="#666666"
     borderopacity="1.0"
     inkscape:pageopacity="0.0"
     inkscape:pageshadow="2"
     inkscape:zoom="1.28"
     inkscape:cx="258.90253"
     inkscape:cy="198.38663"
     inkscape:document-units="px"
     inkscape:current-layer="layer1"
     showgrid="false"
     inkscape:window-width="1315"
     inkscape:window-height="744"
     inkscape:window-x="51"
     inkscape:window-y="622"
     inkscape:window-maximized="1" />
  <metadata
     id="metadata7">
    <rdf:RDF>
      <cc:Work
         rdf:about="">
        <dc:format>image/svg+xml</dc:format>
        <dc:type
           rdf:resource="http://purl.org/dc/dcmitype/StillImage" />
        <dc:title></dc:title>
      </cc:Work>
    </rdf:RDF>
  </metadata>
  <g
     inkscape:label="Layer 1"
     inkscape:groupmode="layer"
     id="layer1"
     transform="translate(0,-698.0315)">
    <path
       style="fill:#000000"
       id="path4114"
       d="m 120.2902,998.6613 c -8.27883,-4.33704 -14.17178,-11.60185 -19.79382,-18.84697 -5.900812,-7.86303 -10.774088,-16.40382 -14.337104,-25.57452 -2.582828,-6.64784 -3.439965,-10.32857 -5.373938,-17.19551 -3.56192,-14.74769 -6.915284,-29.67053 -7.852159,-44.85866 -0.188329,-3.0531 -0.182423,-6.11508 -0.273634,-9.17261 -0.09768,-19.60579 6.006605,-36.9905 13.034073,-54.96227 4.56798,-11.17333 9.498564,-22.20262 15.109442,-32.89443 3.41169,-6.50113 4.35046,-7.96986 7.99772,-14.25949 5.57754,-9.13319 11.49696,-18.15731 18.91403,-25.9295 5.21041,-5.45988 6.59592,-6.23368 12.4392,-10.86435 10.59701,-7.6074 22.81478,-12.08948 35.19515,-15.80909 7.69717,-2.28342 15.61673,-4.05185 23.6738,-4.28294 2.1565,-0.0618 4.31456,0.0435 6.47184,0.0652 12.82723,0.52774 25.20843,4.14037 36.94221,9.19176 2.32461,1.00075 4.59485,2.12333 6.89228,3.185 12.80479,6.44262 23.96088,15.44705 33.70199,25.90337 2.08531,2.23843 4.04893,4.58722 6.0734,6.88083 10.20759,12.83084 20.35872,26.2909 27.97687,40.85729 1.70842,3.2666 3.18566,6.64899 4.77848,9.97348 5.40132,12.26289 9.47973,25.14634 11.49286,38.41696 1.28178,8.44952 1.10209,10.31495 1.38869,18.76713 -0.25558,14.18106 -2.74278,28.24982 -7.07935,41.74501 -0.81939,2.54988 -1.77474,5.05406 -2.6621,7.58109 -2.96892,7.52701 -6.32828,14.93045 -10.32918,21.9718 -3.93831,6.93118 -8.50876,13.46691 -12.99795,20.04355 -5.42726,7.68623 -10.6822,15.55129 -17.28632,22.30669 -4.68746,4.79485 -5.63522,5.22574 -10.95205,9.32095 -8.02229,5.3702 -16.96178,9.1513 -26.34583,11.3893 -6.53617,1.5589 -9.35072,1.7242 -16.04193,2.5653 -18.61516,2.1392 -37.27493,0.076 -55.70764,-2.6037 -11.88899,-2.1444 -23.92221,-3.9881 -35.4549,-7.7028 -1.7558,-0.5655 -3.47663,-1.2343 -5.21494,-1.8515 -5.51734,-2.017 -9.94627,-5.03359 -14.67802,-8.38924 -28.425084,-21.02414 1.30754,-61.22328 29.73263,-40.19914 l 0,0 c 0.65361,0.63146 1.23459,1.2461 2.09101,1.62 9.84656,3.82345 20.47702,5.03285 30.77938,7.05186 14.0585,2.0831 28.30076,3.92421 42.52178,2.42745 6.36656,-0.69594 12.7716,-1.443 18.53326,-4.46772 0.59359,-0.38555 1.2167,-0.72908 1.78078,-1.15665 6.38521,-4.83997 10.13853,-12.30002 14.95245,-18.50846 3.43382,-5.02568 7.06176,-10.00268 10.11725,-15.27493 2.84422,-4.90769 5.23756,-10.07672 7.39738,-15.31546 0.61271,-1.68562 1.27044,-3.35555 1.83811,-5.05687 2.82633,-8.47047 4.56132,-17.30158 5.02244,-26.22159 -0.0508,-4.66578 0.0733,-6.22702 -0.56547,-10.91831 -1.23131,-9.04299 -3.93362,-17.82815 -7.54467,-26.1902 -2.72381,-5.89338 -3.46933,-7.93176 -6.8428,-13.51482 -5.44598,-9.01303 -11.85738,-17.44962 -18.32627,-25.73805 -6.86514,-7.94149 -13.8863,-15.47642 -23.31455,-20.41324 -7.56952,-3.59507 -15.38101,-7.13222 -23.86097,-7.69034 -1.76215,-0.11168 -2.48507,-0.22389 -4.20254,-0.0942 -3.57012,0.26952 -7.04259,1.24084 -10.46196,2.24078 -6.53251,1.92796 -13.09149,3.99979 -18.97802,7.50947 -2.48357,1.78338 -3.33926,2.25908 -5.58183,4.47487 -5.26962,5.20669 -9.12758,11.62262 -13.05565,17.84021 -7.55803,12.95094 -14.27922,26.3506 -19.79541,40.3092 -4.50658,11.39094 -9.24994,23.05647 -9.58266,35.46632 0.0301,1.97811 -0.009,3.95851 0.0904,5.93434 0.61398,12.17547 3.50571,24.10852 6.23162,35.94006 1.37932,5.08649 2.64079,10.32907 4.82208,15.15597 1.67849,3.71429 3.96105,7.11771 6.29877,10.43828 1.73929,2.27576 1.79104,2.37981 3.35451,4.31926 0.24862,0.3084 0.50561,0.60997 0.75585,0.91705 0.10236,0.12562 0.46396,0.38274 0.30192,0.381 -0.69367,-0.007 -1.08651,-1.17196 -1.84928,-0.95462 31.62278,15.81138 9.2621,60.53276 -22.36068,44.72136 z"
       inkscape:connector-curvature="0" />
  </g>
</svg>
