<?xml version="1.0" encoding="UTF-8" standalone="no"?>
<!-- Created with Inkscape (http://www.inkscape.org/) -->

<svg
   xmlns:dc="http://purl.org/dc/elements/1.1/"
   xmlns:cc="http://creativecommons.org/ns#"
   xmlns:rdf="http://www.w3.org/1999/02/22-rdf-syntax-ns#"
   xmlns:svg="http://www.w3.org/2000/svg"
   xmlns="http://www.w3.org/2000/svg"
   xmlns:sodipodi="http://sodipodi.sourceforge.net/DTD/sodipodi-0.dtd"
   xmlns:inkscape="http://www.inkscape.org/namespaces/inkscape"
   width="100mm"
   height="100mm"
   viewBox="0 0 354.33071 354.33071"
   id="svg2"
   version="1.1"
   inkscape:version="0.91 r13725"
   sodipodi:docname="circle8.svg">
  <defs
     id="defs4" />
  <sodipodi:namedview
     id="base"
     pagecolor="#ffffff"
     bordercolor="#666666"
     borderopacity="1.0"
     inkscape:pageopacity="0.0"
     inkscape:pageshadow="2"
     inkscape:zoom="1.28"
     inkscape:cx="258.90253"
     inkscape:cy="198.38663"
     inkscape:document-units="px"
     inkscape:current-layer="layer1"
     showgrid="false"
     inkscape:window-width="1315"
     inkscape:window-height="744"
     inkscape:window-x="51"
     inkscape:window-y="622"
     inkscape:window-maximized="1" />
  <metadata
     id="metadata7">
    <rdf:RDF>
      <cc:Work
         rdf:about="">
        <dc:format>image/svg+xml</dc:format>
        <dc:type
           rdf:resource="http://purl.org/dc/dcmitype/StillImage" />
        <dc:title></dc:title>
      </cc:Work>
    </rdf:RDF>
  </metadata>
  <g
     inkscape:label="Layer 1"
     inkscape:groupmode="layer"
     id="layer1"
     transform="translate(0,-698.0315)">
    <path
       style="fill:#000000"
       id="path4089"
       d="m 67.434211,749.23722 c 8.9329,0.0226 17.866417,-0.10203 26.796977,0.1912 10.213722,0.33536 15.353352,0.7546 25.678692,1.42346 19.71068,1.50894 39.45968,3.34046 58.81333,7.53295 11.91835,2.58181 14.16014,3.56451 25.49903,7.14244 12.88151,4.60204 25.359,10.42242 36.79965,17.95658 5.88938,3.87841 8.68636,6.22316 14.17872,10.49925 13.00968,10.48241 24.3651,22.72692 35.20581,35.38079 8.99428,10.49988 17.25516,21.63978 23.76833,33.86411 1.10904,2.08152 2.09999,4.22383 3.14999,6.33574 3.90438,7.94182 6.5656,16.42306 7.02174,25.30686 0.3066,5.97161 -0.14259,7.70118 -0.83759,13.51638 -1.55536,8.79199 -5.03421,16.96386 -9.8208,24.46736 -3.09212,4.84723 -5.08404,7.1473 -8.66115,11.70416 -7.72681,8.9117 -16.11769,17.32368 -25.76714,24.16681 -6.63852,4.70786 -8.83834,5.61681 -15.92042,9.42949 -8.47876,4.06087 -17.4652,6.92907 -26.76164,8.38283 -10.29878,1.61049 -20.65435,1.55655 -31.03823,1.49354 -18.5151,-0.64063 -37.02425,-2.43416 -55.26183,-5.73812 -3.28681,-0.59544 -6.5507,-1.31115 -9.82605,-1.96672 -12.10497,-2.82753 -23.99346,-6.87866 -34.87895,-12.95422 -6.502539,-3.62929 -8.502906,-5.31874 -14.47012,-9.60818 -10.28763,-8.21163 -20.480584,-16.90514 -28.062198,-27.78866 -1.660703,-2.38396 -3.08392,-4.92487 -4.625881,-7.3873 -6.910422,-12.93636 -10.633292,-27.16607 -12.971826,-41.56692 -0.493135,-3.03676 -0.863191,-6.09223 -1.294786,-9.13834 -1.531598,-12.82503 -2.307772,-25.74224 -1.815927,-38.65767 0.303114,-7.9595 0.691614,-10.49116 1.503856,-18.32821 1.592282,-12.58976 4.242456,-25.03194 7.770041,-37.2167 2.702817,-10.62114 9.429106,-17.96099 16.661529,-25.7119 5.962891,-6.21996 12.355217,-11.99852 18.753839,-17.76084 26.272463,-23.6592 59.731623,13.49567 33.459163,37.15487 l 0,0 c -5.34427,4.81255 -10.70128,9.61795 -15.71473,14.78018 -6.875649,7.30891 1.29781,-1.41246 -4.31788,4.66667 -0.26538,0.28728 -0.701682,1.21708 -0.815984,0.84306 -0.163695,-0.53564 0.430004,-1.0363 0.593194,-1.57209 0.0446,-0.14657 0.0803,-0.60199 0.0254,-0.45895 -0.264401,0.68877 -0.440114,1.40839 -0.660172,2.11258 -2.772595,9.29252 -4.691915,18.83785 -6.033241,28.43649 -0.645807,5.91383 -0.967477,7.99097 -1.233458,13.97478 -0.457959,10.30278 0.171304,20.60387 1.346424,30.84077 1.469078,10.79027 3.109693,21.67613 7.528177,31.72629 1.64444,2.9705 1.78034,3.49922 3.96923,6.23511 4.40915,5.511 10.04724,9.9023 15.40755,14.42639 2.99593,2.24195 4.72676,3.66719 7.92457,5.56475 6.7446,4.00221 14.27183,6.49421 21.84511,8.3765 2.68304,0.54712 5.35598,1.14628 8.04911,1.64135 15.70292,2.88661 31.64589,4.44729 47.59097,5.07702 11.46176,0.14427 23.31003,0.59707 34.03405,-4.10668 3.88572,-1.97356 5.35621,-2.57321 8.9927,-5.01364 6.359,-4.26748 11.69638,-9.80848 16.84343,-15.42754 3.03847,-3.76773 6.391,-7.52611 8.14767,-12.1065 0.21216,-0.81187 0.86368,-3.20306 0.68827,-4.01327 -0.4073,-1.88132 -1.54822,-4.15999 -2.27049,-5.81119 -2.15534,-4.51716 -4.50486,-8.91685 -7.25279,-13.10998 -3.82995,-5.8442 -8.31591,-11.20887 -12.76147,-16.58481 -8.66337,-10.15278 -17.67819,-20.03142 -28.03258,-28.51043 -3.4768,-2.74402 -6.11486,-4.93059 -9.76616,-7.41216 -7.92298,-5.38477 -16.66048,-9.45123 -25.61766,-12.78652 -8.50476,-2.76929 -10.502,-3.63292 -19.54788,-5.63463 -17.3558,-3.84055 -35.0951,-5.38517 -52.78071,-6.76959 -8.97258,-0.58751 -14.50414,-1.02603 -23.357231,-1.3264 -8.621215,-0.29251 -17.24591,-0.15476 -25.869558,-0.1826 -35.355339,0 -35.355339,-50 0,-50 z"
       inkscape:connector-curvature="0" />
  </g>
</svg>
