<?xml version="1.0" encoding="UTF-8" standalone="no"?>
<!-- Created with Inkscape (http://www.inkscape.org/) -->

<svg
   xmlns:dc="http://purl.org/dc/elements/1.1/"
   xmlns:cc="http://creativecommons.org/ns#"
   xmlns:rdf="http://www.w3.org/1999/02/22-rdf-syntax-ns#"
   xmlns:svg="http://www.w3.org/2000/svg"
   xmlns="http://www.w3.org/2000/svg"
   xmlns:sodipodi="http://sodipodi.sourceforge.net/DTD/sodipodi-0.dtd"
   xmlns:inkscape="http://www.inkscape.org/namespaces/inkscape"
   width="100mm"
   height="100mm"
   viewBox="0 0 354.33071 354.33071"
   id="svg2"
   version="1.1"
   inkscape:version="0.91 r13725"
   sodipodi:docname="circle1.svg">
  <defs
     id="defs4" />
  <sodipodi:namedview
     id="base"
     pagecolor="#ffffff"
     bordercolor="#666666"
     borderopacity="1.0"
     inkscape:pageopacity="0.0"
     inkscape:pageshadow="2"
     inkscape:zoom="1.28"
     inkscape:cx="258.90253"
     inkscape:cy="198.38663"
     inkscape:document-units="px"
     inkscape:current-layer="layer1"
     showgrid="false"
     inkscape:window-width="1315"
     inkscape:window-height="744"
     inkscape:window-x="51"
     inkscape:window-y="622"
     inkscape:window-maximized="1" />
  <metadata
     id="metadata7">
    <rdf:RDF>
      <cc:Work
         rdf:about="">
        <dc:format>image/svg+xml</dc:format>
        <dc:type
           rdf:resource="http://purl.org/dc/dcmitype/StillImage" />
        <dc:title></dc:title>
      </cc:Work>
    </rdf:RDF>
  </metadata>
  <g
     inkscape:label="Layer 1"
     inkscape:groupmode="layer"
     id="layer1"
     transform="translate(0,-698.0315)">
    <path
       style="fill:#000000"
       id="path3926"
       d="m 230.5961,793.86115 c -1.72958,-0.61753 -4.56371,-0.92569 -7.08418,-1.15777 -3.90123,-0.1487 -7.76131,0.58877 -11.56457,1.36803 -1.83427,0.43696 -3.68828,0.79823 -5.44687,1.49261 -0.40354,0.15934 -0.81727,0.29751 -1.20456,0.49306 -0.0689,0.0348 -0.2147,0.17 -0.13901,0.18533 0.17332,0.0351 0.34623,-0.0722 0.51934,-0.10829 -3.36733,3.60844 -6.62503,7.31899 -9.94242,10.97486 -7.90925,8.65722 -16.46665,16.70164 -24.44202,25.29402 -1.6246,1.75028 -3.17994,3.5636 -4.76991,5.3454 -4.77913,5.41753 -8.6503,11.53026 -11.65861,18.08885 -1.64203,3.5799 -2.03084,4.9428 -3.35337,8.67005 -2.12736,6.71469 -3.84016,13.61867 -4.47866,20.65126 -0.31727,3.49457 -0.21205,5.95919 -0.18753,9.4748 0.54075,7.08607 1.80975,14.20172 4.39821,20.84884 0.43047,1.10542 0.9506,2.1738 1.4259,3.26071 3.12015,6.07911 6.43061,12.229 10.86743,17.47607 0.62899,0.74386 1.35834,1.39669 2.03751,2.09503 1.31355,0.90785 4.03178,3.80458 5.70937,3.96134 0.22576,0.0211 -0.31572,-0.33316 -0.50988,-0.45028 -0.47404,-0.14933 -0.94808,-0.29866 -1.42212,-0.44799 -0.40498,-0.0752 -0.82126,-0.10446 -1.21494,-0.22561 -0.0471,-0.0145 0.0363,-0.10515 0.0823,-0.12294 0.27947,-0.10807 0.57236,-0.18054 0.8653,-0.24352 2.52824,-0.54351 5.07271,-1.0086 7.60788,-1.51875 13.67421,-3.11961 27.32924,-6.2891 40.81958,-10.13352 6.25964,-2.0753 7.76517,-2.43751 13.75052,-4.94284 3.98787,-1.66923 6.18119,-2.5292 9.48048,-4.92485 2.23711,-1.6244 2.56342,-2.21433 4.26322,-4.19152 3.99894,-5.43326 6.22466,-11.83177 7.97245,-18.27787 2.53193,-10.81246 2.79333,-21.97606 3.12003,-33.02549 0.26477,-8.94779 0.21095,-17.91063 -0.68558,-26.82451 -0.51959,-5.16605 -0.87484,-7.01166 -1.6671,-12.12908 -1.32786,-7.35813 -2.73262,-14.78193 -5.34554,-21.81569 -1.1406,-3.07038 -2.55364,-6.03257 -3.83831,-9.04551 -3.81864,-8.67087 -9.00578,-16.60669 -14.21607,-24.4822 -2.17698,-3.21999 -4.61457,-6.23903 -7.12362,-9.20096 -22.67748,-27.12437 15.68218,-59.19517 38.35966,-32.07079 l 0,0 c 3.67263,4.4285 7.28957,8.90275 10.47669,13.70278 6.8734,10.40879 13.55904,20.98657 18.5125,32.47678 1.75586,4.13488 3.96968,9.20422 5.44546,13.36582 3.39275,9.56733 5.43183,19.56166 7.15906,29.54038 1.0098,6.71486 1.4368,8.94389 2.08497,15.75893 1.01908,10.71479 1.13558,21.48365 0.81502,32.23559 -0.469,15.2088 -1.12077,30.53751 -5.04271,45.32584 -0.68863,2.32551 -1.3019,4.67466 -2.06589,6.97651 -4.02442,12.12522 -10.1125,23.47673 -18.72892,32.96761 -6.09362,5.7778 -7.12043,7.28892 -14.25927,11.8775 -10.67215,6.85967 -22.81957,10.95271 -34.81069,14.80247 -14.74926,4.17422 -29.65828,7.69854 -44.6143,11.05245 -9.96394,2.00416 -19.09996,4.25826 -29.29449,1.67995 -1.62276,-0.51182 -3.27532,-0.93734 -4.8683,-1.53547 -9.21929,-3.4617 -17.0039,-9.72276 -23.9137,-16.59115 -1.65924,-1.88934 -3.39446,-3.71455 -4.97771,-5.668 -6.93796,-8.56021 -12.31103,-18.34665 -17.01223,-28.26325 -0.90224,-2.23285 -1.88485,-4.43489 -2.70671,-6.69856 -4.26961,-11.75983 -6.427637,-24.22 -6.935336,-36.69546 0.05695,-6.93274 -0.0888,-9.20241 0.659896,-16.21125 1.126119,-10.54208 3.70695,-20.89489 7.03798,-30.93976 2.3225,-6.25319 2.87186,-8.16415 5.76111,-14.20358 4.98358,-10.41718 11.36955,-20.10269 18.98778,-28.7833 1.99798,-2.22082 3.95978,-4.47472 5.99394,-6.66246 7.64385,-8.22096 15.81309,-15.94617 23.42146,-24.20256 6.11796,-6.74212 11.91809,-13.92363 19.47737,-19.13807 1.63422,-0.99796 3.21939,-2.08108 4.90267,-2.99387 5.94417,-3.22335 12.58695,-4.89511 19.13672,-6.35111 8.69305,-1.69068 17.51973,-2.89393 26.39366,-2.06156 6.01359,0.64823 12.04167,1.50056 17.79103,3.46235 33.54102,11.18034 17.72963,58.61451 -15.81139,47.43417 z"
       inkscape:connector-curvature="0" />
  </g>
</svg>
