<?xml version="1.0" encoding="UTF-8" standalone="no"?>
<!-- Created with Inkscape (http://www.inkscape.org/) -->

<svg
   xmlns:dc="http://purl.org/dc/elements/1.1/"
   xmlns:cc="http://creativecommons.org/ns#"
   xmlns:rdf="http://www.w3.org/1999/02/22-rdf-syntax-ns#"
   xmlns:svg="http://www.w3.org/2000/svg"
   xmlns="http://www.w3.org/2000/svg"
   xmlns:sodipodi="http://sodipodi.sourceforge.net/DTD/sodipodi-0.dtd"
   xmlns:inkscape="http://www.inkscape.org/namespaces/inkscape"
   width="100mm"
   height="100mm"
   viewBox="0 0 354.33071 354.33071"
   id="svg2"
   version="1.1"
   inkscape:version="0.91 r13725"
   sodipodi:docname="circle10.svg">
  <defs
     id="defs4" />
  <sodipodi:namedview
     id="base"
     pagecolor="#ffffff"
     bordercolor="#666666"
     borderopacity="1.0"
     inkscape:pageopacity="0.0"
     inkscape:pageshadow="2"
     inkscape:zoom="1.28"
     inkscape:cx="258.90253"
     inkscape:cy="198.38663"
     inkscape:document-units="px"
     inkscape:current-layer="layer1"
     showgrid="false"
     inkscape:window-width="1315"
     inkscape:window-height="744"
     inkscape:window-x="51"
     inkscape:window-y="622"
     inkscape:window-maximized="1" />
  <metadata
     id="metadata7">
    <rdf:RDF>
      <cc:Work
         rdf:about="">
        <dc:format>image/svg+xml</dc:format>
        <dc:type
           rdf:resource="http://purl.org/dc/dcmitype/StillImage" />
        <dc:title></dc:title>
      </cc:Work>
    </rdf:RDF>
  </metadata>
  <g
     inkscape:label="Layer 1"
     inkscape:groupmode="layer"
     id="layer1"
     transform="translate(0,-698.0315)">
    <path
       style="fill:#000000"
       id="path4139"
       d="m 162.1956,928.38983 c 8.89004,1.33375 17.87613,1.87076 26.84317,2.40556 10.28022,0.25518 20.67733,0.36129 30.8676,-1.26703 5.18274,-0.82816 6.82668,-1.45921 11.76715,-2.88431 9.73871,-3.43082 18.61814,-8.8968 26.99846,-14.85206 1.4338,-1.2924 3.4103,-2.95476 4.60948,-4.49902 0.3251,-0.41865 0.49976,-0.93577 0.71815,-1.41874 1.28312,-2.83767 2.12821,-5.81056 3.00182,-8.79123 3.06398,-11.93808 5.39962,-24.05919 7.72571,-36.16 0.7931,-4.58721 1.58582,-9.1919 1.6227,-13.86122 0.0329,-4.15976 -0.44633,-8.28047 -0.97862,-12.39592 -1.29131,-8.13117 -3.38595,-16.09744 -5.6504,-24.00269 -1.13144,-3.81726 -2.90204,-7.3838 -4.97366,-10.76699 -1.30901,-2.09778 -2.93236,-3.83617 -5.03128,-5.1282 -2.82091,-1.4611 -5.86907,-2.28416 -8.92848,-3.09319 -7.25042,-1.57532 -14.72155,-0.72716 -22.01248,0.0895 -11.8196,1.45303 -23.49406,3.88548 -35.13411,6.36136 -12.52666,2.72893 -25.03423,5.54835 -37.57475,8.21316 -11.98415,2.5506 -23.97274,5.09554 -35.87031,8.02758 -4.66373,1.15962 -9.37434,2.26826 -13.92501,3.83639 -1.06281,0.36623 -2.08714,0.83583 -3.1324,1.24948 -5.852279,2.31597 -2.75925,0.99563 -7.982458,3.33887 -7.830568,3.74748 -14.995261,8.6995 -22.094116,13.65492 -5.540371,4.20203 -11.380432,8.27933 -15.76459,13.74749 -1.190165,2.11823 -2.133506,4.40074 -2.688232,6.76789 -0.351075,1.7915 -0.460106,3.61077 0.155021,5.3521 2.130836,6.41582 5.067844,12.5353 7.936139,18.64541 3.54783,7.7873 8.376991,14.86192 13.710863,21.51716 0.140559,-1.11375 1.046498,1.76332 1.435209,1.25935 0.196389,-0.25462 -1.31068,-1.0534 0.145582,-0.27251 0.499712,0.26795 0.98958,0.55388 1.48437,0.83082 0.598512,0.32008 1.197024,0.64015 1.795536,0.96023 6.252937,3.40552 11.960977,7.67808 17.922628,11.54645 4.180398,2.5199 8.533518,4.7385 12.805718,7.09766 3.05386,1.8778 6.23209,3.52455 9.36711,5.25771 3.78759,2.1472 7.38748,4.65421 11.36411,6.44713 31.79668,15.45871 9.93476,60.426 -21.86191,44.96729 l 0,0 c -4.70676,-2.34859 -9.31064,-4.86722 -13.753943,-7.68967 -3.101829,-1.72886 -6.268602,-3.34096 -9.288679,-5.21431 -5.328917,-2.94371 -10.77166,-5.69394 -15.913213,-8.96405 -4.796976,-3.13114 -9.42861,-6.51879 -14.362681,-9.4332 -3.110033,-1.68435 -6.296263,-3.34322 -9.189501,-5.38966 -4.157547,-2.94071 -7.866502,-6.34046 -11.089578,-10.28861 C 29.567711,923.84787 22.61604,913.49921 17.424455,902.1749 12.709953,892.09839 7.8463136,881.92685 5.5209292,870.98094 5.2591923,869.29897 4.9291664,867.62622 4.7357185,865.93504 3.8510037,858.2006 4.663853,850.38473 6.6332619,842.87835 c 0.441418,-1.43386 0.8422259,-2.88086 1.3242539,-4.30158 2.5738062,-7.58601 6.4226372,-14.69667 11.4123102,-20.96412 1.199848,-1.36411 2.354174,-2.76966 3.599546,-4.09234 6.437535,-6.83718 13.967313,-12.55505 21.50899,-18.09848 9.738888,-6.77479 19.640778,-13.41488 30.463792,-18.36256 10.765305,-4.71195 21.788308,-8.79907 33.314676,-11.24655 12.41663,-3.04715 24.91762,-5.73395 37.4244,-8.38355 12.53929,-2.66015 25.04276,-5.48865 37.56846,-8.21182 13.32589,-2.82827 26.69596,-5.57766 40.23558,-7.17244 2.48951,-0.25531 4.97354,-0.57142 7.46853,-0.76595 11.044,-0.86108 22.22379,-0.59589 33.00394,2.16159 3.70505,1.02956 5.44736,1.44088 9.10734,2.76275 5.75729,2.07937 11.23903,4.86955 16.30387,8.30682 1.23186,0.93701 2.49808,1.83049 3.69558,2.81104 5.81812,4.76412 10.64901,10.57871 14.61576,16.94796 4.21681,7.15087 7.82685,14.65162 10.11754,22.66085 2.97678,10.44531 5.67655,20.989 7.21458,31.75658 0.68271,5.93349 1.02304,7.81271 1.21169,13.80626 0.29502,9.37338 -0.59321,18.69154 -2.39992,27.88962 -2.7054,14.01308 -5.36799,28.0678 -9.16746,41.83243 -2.1438,6.50415 -2.91234,9.65341 -6.0431,15.81566 -5.09534,10.0291 -12.28104,17.99864 -21.24431,24.70611 -1.95088,1.35499 -3.87121,2.75505 -5.85264,4.06497 -11.3781,7.52203 -23.55771,13.9558 -36.59935,18.05657 -8.60963,2.29402 -10.41387,3.03081 -19.37251,4.35125 -13.06385,1.92553 -26.34668,1.92311 -39.51023,1.49563 -9.80543,-0.59504 -19.63449,-1.18881 -29.36056,-2.62104 -35.1391,-3.90434 -29.61752,-53.59853 5.52158,-49.69418 z"
       inkscape:connector-curvature="0" />
  </g>
</svg>
