<?xml version="1.0" encoding="UTF-8" standalone="no"?>
<!-- Created with Inkscape (http://www.inkscape.org/) -->

<svg
   xmlns:dc="http://purl.org/dc/elements/1.1/"
   xmlns:cc="http://creativecommons.org/ns#"
   xmlns:rdf="http://www.w3.org/1999/02/22-rdf-syntax-ns#"
   xmlns:svg="http://www.w3.org/2000/svg"
   xmlns="http://www.w3.org/2000/svg"
   xmlns:sodipodi="http://sodipodi.sourceforge.net/DTD/sodipodi-0.dtd"
   xmlns:inkscape="http://www.inkscape.org/namespaces/inkscape"
   width="100mm"
   height="100mm"
   viewBox="0 0 354.33071 354.33071"
   id="svg2"
   version="1.1"
   inkscape:version="0.91 r13725"
   sodipodi:docname="circle14.svg">
  <defs
     id="defs4" />
  <sodipodi:namedview
     id="base"
     pagecolor="#ffffff"
     bordercolor="#666666"
     borderopacity="1.0"
     inkscape:pageopacity="0.0"
     inkscape:pageshadow="2"
     inkscape:zoom="1.28"
     inkscape:cx="258.90253"
     inkscape:cy="198.38663"
     inkscape:document-units="px"
     inkscape:current-layer="layer1"
     showgrid="false"
     inkscape:window-width="1315"
     inkscape:window-height="744"
     inkscape:window-x="51"
     inkscape:window-y="622"
     inkscape:window-maximized="1" />
  <metadata
     id="metadata7">
    <rdf:RDF>
      <cc:Work
         rdf:about="">
        <dc:format>image/svg+xml</dc:format>
        <dc:type
           rdf:resource="http://purl.org/dc/dcmitype/StillImage" />
        <dc:title></dc:title>
      </cc:Work>
    </rdf:RDF>
  </metadata>
  <g
     inkscape:label="Layer 1"
     inkscape:groupmode="layer"
     id="layer1"
     transform="translate(0,-698.0315)">
    <path
       style="fill:#000000"
       id="path4241"
       d="m 146.87737,801.37318 c -5.21644,3.38088 -10.44387,6.74308 -15.61283,10.19701 -8.92045,5.87121 -17.19019,12.62178 -25.12084,19.7525 -3.76651,3.66221 -7.157468,7.72963 -9.574319,12.42017 -1.025902,1.99104 -1.284371,3.05499 -1.965454,5.14381 -0.657021,2.46044 -1.185157,4.98775 -1.312393,7.53969 -0.14253,2.85869 0.370128,5.81568 0.686249,8.63862 0.993896,5.88217 2.104336,11.75429 3.954957,17.43686 1.284643,3.94467 1.757815,4.85634 3.35875,8.68246 2.63223,5.53927 5.67489,10.90327 9.47499,15.734 2.50623,3.18595 3.41483,3.92338 6.3063,6.8255 10.90417,9.72922 23.19319,17.7403 35.35964,25.7741 12.82844,8.06862 25.32619,16.90321 39.21315,23.11894 2.23697,1.00125 4.54884,1.82597 6.82326,2.73896 5.28756,1.95037 10.76539,3.2074 16.39015,3.56714 2.66867,0.17067 5.64906,0.32763 8.23736,-0.47744 0.002,-0.0921 -0.0566,-0.20735 0.005,-0.27621 0.76122,-0.85723 8.34179,-4.02909 8.49861,-4.09632 3.98772,-1.7096 10.07295,-4.10163 14.04904,-5.68554 6.63474,-2.58895 13.2924,-5.25625 19.32616,-9.09638 2.93024,-1.86492 5.48231,-3.73285 7.755,-6.34831 0.70141,-0.8072 1.20981,-1.76367 1.81472,-2.64551 3.05346,-6.5562 3.31177,-13.95281 3.6871,-21.05668 0.0344,-7.26319 0.0499,-14.54339 -0.48352,-21.79202 -0.38306,-5.20544 -0.60039,-6.35982 -1.26016,-11.53396 -0.98046,-7.23529 -2.51031,-14.39702 -4.99061,-21.27484 -1.29548,-3.59233 -2.66626,-6.5504 -4.20472,-10.0626 -5.71023,-12.01151 -11.99663,-23.74041 -18.61512,-35.27297 -4.22394,-6.64705 -8.16155,-14.13134 -14.91597,-18.56883 -6.50138,-3.7547 -13.85226,-5.59387 -21.01606,-7.63297 -8.45683,-2.60684 -17.07331,-4.58643 -25.8143,-5.94085 -1.40146,0.11111 0.8503,0.22985 0.37566,0.5087 -0.65839,0.38682 -1.4005,0.60919 -2.10408,0.90599 -1.9829,0.83647 -3.97018,1.66253 -5.95527,2.4938 -32.68907,13.46939 -51.73767,-32.75994 -19.0486,-46.22933 l 0,0 c 5.4842,-2.23395 10.32052,-4.43674 16.04508,-5.93123 6.0612,-1.58237 12.25198,-1.95233 18.45374,-1.14105 10.75278,1.70832 21.38173,4.06958 31.7981,7.26185 13.17983,3.78502 26.42671,7.84677 37.66854,16.01039 1.89282,1.50911 3.86345,2.92547 5.67846,4.52731 9.18188,8.1035 15.97328,18.46191 22.21802,28.87886 7.52249,13.14747 14.70147,26.50337 21.1039,40.23686 2.52948,5.87608 3.86374,8.68815 5.97712,14.79027 3.39635,9.80654 5.57798,19.97942 6.96184,30.25356 0.8347,6.81099 1.09819,8.21758 1.57334,15.05568 0.63291,9.10843 0.64433,18.25746 0.46907,27.38089 -0.35479,5.68285 -0.44843,9.1205 -1.31289,14.81015 -1.95424,12.86227 -6.03805,24.62614 -13.78281,35.21814 -2.36856,2.70793 -4.54926,5.59247 -7.10569,8.1238 -11.65275,11.53831 -26.72399,18.64781 -41.79924,24.52415 -5.35271,2.1304 -10.76368,4.1642 -15.99314,6.5904 -3.86739,1.7942 -6.0429,3.103 -10.22466,4.4897 -2.31492,0.7677 -4.70727,1.2784 -7.0609,1.9176 -2.38786,0.3149 -4.76257,0.7544 -7.16358,0.9445 -15.07276,1.1933 -30.15273,-2.068 -44.24221,-7.1806 -3.33179,-1.3913 -6.71239,-2.671 -9.99535,-4.1738 -15.71784,-7.1951 -30.06887,-16.94258 -44.59522,-26.21293 -15.19698,-10.0456 -30.517895,-20.14521 -43.756462,-32.7501 -1.97547,-2.07996 -4.029455,-4.08806 -5.926411,-6.23986 -8.41284,-9.54305 -14.96172,-20.55939 -20.172434,-32.12714 -2.468257,-6.11994 -3.170052,-7.50274 -5.136037,-13.8019 -2.658527,-8.51811 -4.364342,-17.29447 -5.636786,-26.11594 -0.49889,-5.08809 -0.916124,-8.06732 -0.885617,-13.26319 0.0511,-8.70278 1.663986,-17.29381 4.405164,-25.53777 2.467918,-6.31725 2.769311,-7.72393 6.14391,-13.72949 4.96406,-8.83422 11.533002,-16.63431 18.868317,-23.5823 9.715337,-8.6838 19.826106,-16.92457 30.724136,-24.09884 5.58899,-3.72986 11.23527,-7.37013 16.87932,-11.01537 29.98127,-18.7383 56.48121,23.66162 26.49995,42.39991 z"
       inkscape:connector-curvature="0" />
  </g>
</svg>
