<?xml version="1.0" encoding="UTF-8" standalone="no"?>
<!-- Created with Inkscape (http://www.inkscape.org/) -->

<svg
   xmlns:dc="http://purl.org/dc/elements/1.1/"
   xmlns:cc="http://creativecommons.org/ns#"
   xmlns:rdf="http://www.w3.org/1999/02/22-rdf-syntax-ns#"
   xmlns:svg="http://www.w3.org/2000/svg"
   xmlns="http://www.w3.org/2000/svg"
   xmlns:sodipodi="http://sodipodi.sourceforge.net/DTD/sodipodi-0.dtd"
   xmlns:inkscape="http://www.inkscape.org/namespaces/inkscape"
   width="100mm"
   height="100mm"
   viewBox="0 0 354.33071 354.33071"
   id="svg2"
   version="1.1"
   inkscape:version="0.91 r13725"
   sodipodi:docname="circle6.svg">
  <defs
     id="defs4" />
  <sodipodi:namedview
     id="base"
     pagecolor="#ffffff"
     bordercolor="#666666"
     borderopacity="1.0"
     inkscape:pageopacity="0.0"
     inkscape:pageshadow="2"
     inkscape:zoom="1.28"
     inkscape:cx="258.90253"
     inkscape:cy="198.38663"
     inkscape:document-units="px"
     inkscape:current-layer="layer1"
     showgrid="false"
     inkscape:window-width="1315"
     inkscape:window-height="744"
     inkscape:window-x="51"
     inkscape:window-y="622"
     inkscape:window-maximized="1" />
  <metadata
     id="metadata7">
    <rdf:RDF>
      <cc:Work
         rdf:about="">
        <dc:format>image/svg+xml</dc:format>
        <dc:type
           rdf:resource="http://purl.org/dc/dcmitype/StillImage" />
        <dc:title></dc:title>
      </cc:Work>
    </rdf:RDF>
  </metadata>
  <g
     inkscape:label="Layer 1"
     inkscape:groupmode="layer"
     id="layer1"
     transform="translate(0,-698.0315)">
    <path
       style="fill:#000000"
       id="path4041"
       d="m 174.63429,811.85217 c -2.48727,-1.77627 -4.99057,-3.48418 -7.74426,-4.81513 -1.63141,-0.72395 -3.25132,-1.47619 -4.91924,-2.11421 -0.43469,-0.16628 -1.19885,-0.50236 -1.725,-0.52032 0.44279,0.40481 1.44967,0.0895 1.85622,0.43536 0.14312,0.12175 -0.36861,0.0732 -0.55366,0.10581 -2.28963,0.40296 -0.85116,0.0808 -3.41461,0.76692 -8.04712,2.12686 -15.56017,5.71569 -22.7706,9.80391 -8.54101,5.67787 -16.22081,12.54036 -23.98631,19.21032 -11.919161,10.73611 -21.773046,23.46371 -31.319608,36.28281 -6.753514,9.42347 -13.579075,18.92169 -18.575816,29.43339 -2.314578,4.8692 -2.711645,6.57731 -4.350552,11.56267 -1.585008,5.72279 -2.667347,11.67938 -2.460654,17.64308 0.09819,2.83312 0.360885,3.83756 0.827655,6.65841 1.347907,8.52941 4.398815,16.61764 8.527789,24.1788 0.972088,1.78013 2.066006,3.49097 3.099009,5.23646 4.01184,6.4446 8.961879,12.29879 15.25347,16.62706 3.324115,2.28681 6.228139,3.58649 9.847236,5.41402 10.755071,4.91097 22.177971,8.29775 33.919671,9.77904 2.53243,0.31948 5.08457,0.45647 7.62686,0.68471 11.23264,0.51923 22.54205,-0.1306 33.63136,-2.02021 7.80035,-1.32917 9.94658,-2.0347 17.62624,-3.97828 10.63539,-3.05708 21.04555,-6.95896 30.97054,-11.86626 5.07469,-2.50912 7.11728,-3.80144 11.9668,-6.61812 6.4947,-4.21153 13.44377,-7.96303 19.24876,-13.15287 2.00057,-1.78856 2.51661,-2.65647 4.07318,-4.70911 2.74437,-4.32568 4.84996,-9.12678 6.10105,-14.10295 0.29168,-1.16014 0.49249,-2.34125 0.73873,-3.51187 1.77132,-13.60302 2.5761,-27.33859 2.79138,-41.05079 -0.0921,-9.91818 -0.90907,-19.8352 -2.42931,-29.63746 -0.81183,-5.2346 -1.45677,-7.99487 -2.53394,-13.15512 -2.11223,-8.51598 -3.83315,-17.25086 -7.27549,-25.36308 -0.14402,-0.26705 -0.28804,-0.5341 -0.43206,-0.80115 -0.0475,-0.0424 -0.17376,-0.18251 -0.14239,-0.12715 1.14978,2.02934 2.25261,3.35248 3.91523,4.93161 -3.51099,-2.1974 -7.09056,-4.27715 -10.64164,-6.40808 -30.30152,-18.21588 -4.54037,-61.06869 25.76114,-42.85281 l 0,0 c 3.54782,2.13785 7.13194,4.21382 10.64461,6.40987 2.63467,1.66241 4.18047,2.5044 6.5981,4.66846 4.74354,4.246 8.21839,9.50457 10.62408,15.3696 4.38258,11.00783 7.36615,22.48928 9.91269,34.04847 1.41882,6.91511 2.06013,9.60125 3.13317,16.687 1.85925,12.27745 2.8124,24.69603 2.85802,37.1122 -0.0605,3.14654 -0.07,6.29449 -0.18163,9.43964 -0.15596,4.39413 -0.72901,13.27254 -1.06176,17.68353 -0.28051,3.71864 -1.05363,12.80177 -1.54087,16.46945 -0.3505,2.63838 -0.8625,5.25279 -1.29374,7.87918 -0.58479,2.41026 -1.08165,4.84357 -1.75437,7.23078 -3.17296,11.25946 -8.41512,21.89441 -15.48185,31.21179 -5.06021,5.82619 -5.51013,6.773 -11.42147,11.83898 -7.7469,6.63907 -16.62577,11.82037 -25.2402,17.21077 -6.68939,3.8335 -8.9432,5.269 -15.98687,8.6988 -12.77538,6.2209 -26.15449,11.1715 -39.83694,14.9848 -9.95144,2.4471 -12.80103,3.3604 -22.94522,5.0006 -14.94383,2.4162 -30.15969,3.1737 -45.26671,2.2419 -3.70215,-0.383 -7.41937,-0.6411 -11.10644,-1.1491 -16.95364,-2.3362 -33.421186,-7.4574 -48.848722,-14.827 -7.915133,-4.2613 -11.039385,-5.5695 -18.335576,-11.0533 -10.868868,-8.169 -19.684031,-18.6337 -26.756203,-30.18534 -1.569121,-2.74899 -3.230779,-5.44719 -4.707364,-8.24698 C 12.651651,970.2112 8.0919116,956.96942 5.9753111,943.1985 c -0.8488478,-6.66192 -1.281343,-8.35403 -1.2828002,-15.04525 -0.00239,-10.99119 1.9560509,-21.90203 5.1503518,-32.39288 3.0219303,-8.5757 3.4096693,-10.44313 7.4796653,-18.77128 6.228543,-12.74504 14.372851,-24.42452 22.662653,-35.88515 11.767807,-15.74099 24.025525,-31.25837 38.816981,-44.31183 10.280146,-8.82637 20.503255,-17.87082 32.137138,-24.90645 11.50403,-6.38625 23.51272,-11.90401 36.36526,-14.98826 1.9872,-0.41183 3.96134,-0.89265 5.96159,-1.23549 6.55636,-1.12374 13.3248,-1.19689 19.80242,0.4128 5.68714,1.58217 11.16549,3.75803 16.45696,6.37944 4.46168,2.30641 8.78223,4.83266 12.84377,7.79551 29.41742,19.61161 1.68241,61.21413 -27.73501,41.60251 z"
       inkscape:connector-curvature="0" />
  </g>
</svg>
