<?xml version="1.0" encoding="UTF-8" standalone="no"?>
<!-- Created with Inkscape (http://www.inkscape.org/) -->

<svg
   xmlns:dc="http://purl.org/dc/elements/1.1/"
   xmlns:cc="http://creativecommons.org/ns#"
   xmlns:rdf="http://www.w3.org/1999/02/22-rdf-syntax-ns#"
   xmlns:svg="http://www.w3.org/2000/svg"
   xmlns="http://www.w3.org/2000/svg"
   xmlns:sodipodi="http://sodipodi.sourceforge.net/DTD/sodipodi-0.dtd"
   xmlns:inkscape="http://www.inkscape.org/namespaces/inkscape"
   width="100mm"
   height="100mm"
   viewBox="0 0 354.33071 354.33071"
   id="svg2"
   version="1.1"
   inkscape:version="0.91 r13725"
   sodipodi:docname="circle3.svg">
  <defs
     id="defs4" />
  <sodipodi:namedview
     id="base"
     pagecolor="#ffffff"
     bordercolor="#666666"
     borderopacity="1.0"
     inkscape:pageopacity="0.0"
     inkscape:pageshadow="2"
     inkscape:zoom="1.28"
     inkscape:cx="258.90253"
     inkscape:cy="198.38663"
     inkscape:document-units="px"
     inkscape:current-layer="layer1"
     showgrid="false"
     inkscape:window-width="1315"
     inkscape:window-height="744"
     inkscape:window-x="51"
     inkscape:window-y="622"
     inkscape:window-maximized="1" />
  <metadata
     id="metadata7">
    <rdf:RDF>
      <cc:Work
         rdf:about="">
        <dc:format>image/svg+xml</dc:format>
        <dc:type
           rdf:resource="http://purl.org/dc/dcmitype/StillImage" />
        <dc:title></dc:title>
      </cc:Work>
    </rdf:RDF>
  </metadata>
  <g
     inkscape:label="Layer 1"
     inkscape:groupmode="layer"
     id="layer1"
     transform="translate(0,-698.0315)">
    <path
       style="fill:#000000"
       id="path3968"
       d="m 115.25929,997.78967 c -5.31349,-3.56435 -10.17104,-7.70819 -14.79309,-12.11718 -8.930446,-8.47344 -14.797483,-19.27543 -20.315692,-30.11978 -6.255792,-12.63558 -12.144671,-25.54272 -15.827232,-39.1971 -0.852005,-3.1591 -1.491836,-6.37164 -2.237753,-9.55746 -3.087312,-15.49634 -3.820859,-31.57999 -0.873795,-47.1701 0.595321,-3.14928 1.482734,-6.23626 2.224101,-9.35439 3.139524,-11.11753 7.784284,-21.73138 13.368196,-31.82613 3.010402,-5.44229 4.372287,-7.4407 7.650139,-12.63675 6.508704,-9.76712 13.895087,-19.34261 23.876306,-25.81512 2.35241,-1.52546 4.8919,-2.74094 7.33785,-4.11141 2.46124,-1.0213 4.87863,-2.15544 7.38372,-3.06389 8.41609,-3.05203 17.22755,-4.82184 25.99848,-6.48104 7.04983,-1.33362 13.0125,-2.30739 20.10232,-3.50812 9.31209,-1.45453 18.59479,-3.08621 27.91339,-4.49969 3.83923,-0.58235 10.28869,-1.54588 14.26549,-1.89793 2.25941,-0.20002 4.52872,-0.26545 6.79307,-0.39818 2.79413,0.1847 5.61704,0.11345 8.38238,0.5541 11.14133,1.77536 21.2711,7.13855 30.28936,13.72192 2.18822,1.59742 4.25126,3.35963 6.37689,5.03944 9.60797,8.42569 18.40359,17.89499 25.15567,28.79445 1.32358,2.13657 2.48207,4.37109 3.7231,6.55663 5.66983,10.91192 9.38486,22.75314 11.51173,34.85016 0.4957,2.81937 0.83144,5.66454 1.24716,8.49682 2.44587,21.57734 -0.58268,43.15067 -3.75771,64.47129 -2.79798,19.1854 -7.4788,38.03021 -12.53528,56.72635 -3.32872,11.28826 -6.62106,22.75359 -12.46424,33.05734 -1.17644,2.0746 -2.53521,4.0403 -3.80282,6.0604 -6.60066,9.695 -15.51953,17.3389 -24.82782,24.3159 -5.89021,4.3543 -12.39556,7.7778 -19.34822,10.092 -4.02967,1.3412 -5.30303,1.5004 -9.37307,2.3705 -7.76656,1.4124 -15.54267,0.6721 -23.08294,-1.5187 -4.1795,-1.2142 -6.29194,-2.2234 -10.31272,-3.8928 -9.13961,-3.9439 -17.13072,-9.9191 -25.56718,-15.0972 -5.344,-3.1556 -10.6682,-6.3719 -15.20178,-10.6602 -1.10326,-1.0436 -2.10192,-2.1926 -3.15288,-3.2888 -1.29851,-1.7839 -2.59703,-3.5677 -3.89554,-5.3516 -19.34621,-29.59265 22.50411,-56.95232 41.85031,-27.35968 l 0,0 c -0.36874,-0.36165 -0.73748,-0.7233 -1.10623,-1.08496 -0.008,0.0407 0.0161,0.11349 -0.0246,0.12208 -0.0878,0.0186 -0.32581,-0.12449 -0.262,-0.0614 2.25579,2.22917 5.54701,3.1801 8.01173,5.11038 3.96156,2.44608 4.13778,2.51833 8.12299,5.13357 3.5236,2.31231 6.96353,4.78003 10.81706,6.53613 0.0674,0.0304 4.27999,1.75708 4.31528,1.94458 0.0476,0.2532 -0.61637,0.1079 -0.68596,0.3559 -0.0341,0.1214 0.24601,0.056 0.36901,0.084 3.23289,-0.4676 6.13044,-1.4852 8.71768,-3.57597 4.59274,-3.35554 9.14999,-6.94492 12.71018,-11.41587 0.46773,-0.65059 0.98209,-1.27007 1.40319,-1.95178 4.32306,-6.99862 5.99593,-15.27525 8.52859,-22.99191 4.56157,-16.82367 8.82196,-33.77724 11.34573,-51.04364 2.47995,-16.55167 5.14103,-33.28784 3.70356,-50.07185 -1.21194,-9.04855 -2.86009,-17.88508 -6.98524,-26.12199 -0.55831,-1.06087 -1.06809,-2.14873 -1.67492,-3.18261 -3.89592,-6.63772 -9.22532,-12.27256 -14.84286,-17.47308 -3.22673,-2.69857 -3.06587,-2.70843 -6.50118,-5.02418 -0.85765,-0.57814 -1.75665,-1.09262 -2.6263,-1.65255 -0.42067,-0.27084 -0.91159,-0.46577 -1.24423,-0.8395 -0.0979,-0.10998 0.22148,-0.32072 0.11816,-0.42563 -0.22832,-0.23187 -0.60193,-0.2475 -0.90289,-0.37125 -5.36913,0.186 -10.51396,0.95035 -15.83124,1.75567 -9.12034,1.3813 -18.20463,2.98212 -27.31873,4.40274 -7.43585,1.25744 -11.46579,1.90622 -18.78929,3.26783 -6.72632,1.25057 -13.51225,2.50345 -19.96331,4.84318 -0.39546,0.10766 -0.81088,0.15872 -1.18637,0.32299 -4.45246,1.94793 -8.13877,8.33844 -10.87254,12.01593 -5.98088,9.37506 -11.55423,19.07762 -14.73887,29.80958 -1.08543,3.97201 -1.67802,5.55477 -2.15969,9.66282 -0.92299,7.87196 -0.49046,15.87346 1.04915,23.63348 1.19201,5.45525 1.40006,7.09578 3.15768,12.39867 2.85162,8.60359 6.81663,16.7802 10.7798,24.90984 2.9459,5.87987 5.74497,12.0361 10.46006,16.74336 2.3883,2.38639 4.98828,4.521 7.76167,6.44927 29.41742,19.61161 1.68241,61.21415 -27.73501,41.60251 z"
       inkscape:connector-curvature="0" />
  </g>
</svg>
