<?xml version="1.0" encoding="UTF-8" standalone="no"?>
<!-- Created with Inkscape (http://www.inkscape.org/) -->

<svg
   xmlns:dc="http://purl.org/dc/elements/1.1/"
   xmlns:cc="http://creativecommons.org/ns#"
   xmlns:rdf="http://www.w3.org/1999/02/22-rdf-syntax-ns#"
   xmlns:svg="http://www.w3.org/2000/svg"
   xmlns="http://www.w3.org/2000/svg"
   xmlns:sodipodi="http://sodipodi.sourceforge.net/DTD/sodipodi-0.dtd"
   xmlns:inkscape="http://www.inkscape.org/namespaces/inkscape"
   width="100mm"
   height="100mm"
   viewBox="0 0 354.33071 354.33071"
   id="svg2"
   version="1.1"
   inkscape:version="0.91 r13725"
   sodipodi:docname="circle12.svg">
  <defs
     id="defs4" />
  <sodipodi:namedview
     id="base"
     pagecolor="#ffffff"
     bordercolor="#666666"
     borderopacity="1.0"
     inkscape:pageopacity="0.0"
     inkscape:pageshadow="2"
     inkscape:zoom="1.28"
     inkscape:cx="258.90253"
     inkscape:cy="198.38663"
     inkscape:document-units="px"
     inkscape:current-layer="layer1"
     showgrid="false"
     inkscape:window-width="1315"
     inkscape:window-height="744"
     inkscape:window-x="51"
     inkscape:window-y="622"
     inkscape:window-maximized="1" />
  <metadata
     id="metadata7">
    <rdf:RDF>
      <cc:Work
         rdf:about="">
        <dc:format>image/svg+xml</dc:format>
        <dc:type
           rdf:resource="http://purl.org/dc/dcmitype/StillImage" />
        <dc:title></dc:title>
      </cc:Work>
    </rdf:RDF>
  </metadata>
  <g
     inkscape:label="Layer 1"
     inkscape:groupmode="layer"
     id="layer1"
     transform="translate(0,-698.0315)">
    <path
       style="fill:#000000"
       id="path4189"
       d="m 94.106981,735.42142 c 8.707539,-1.81574 17.564719,-2.97149 26.450549,-3.41426 3.27605,-0.16324 6.55826,-0.16082 9.83738,-0.24124 14.39698,-0.0169 28.72328,2.07961 42.50891,6.23674 9.54014,2.87688 11.87363,4.15534 21.0333,8.03298 9.64475,5.20296 12.13777,6.07003 20.97102,12.79887 10.35583,7.88868 19.50932,17.41672 27.85167,27.37032 2.8884,3.44627 5.57868,7.05384 8.36801,10.58076 11.028,14.69133 19.8611,30.89757 25.55384,48.38826 3.47044,10.66277 3.5106,12.95982 5.50608,23.91819 1.94971,16.40068 2.57196,33.07056 1.77848,49.57649 -0.14111,2.93537 -0.39566,5.86418 -0.59349,8.79628 -1.49028,15.12595 -5.89066,29.76728 -12.29322,43.52046 -1.22193,2.6248 -2.59082,5.17866 -3.88623,7.76798 -7.70894,14.41978 -17.74411,27.63895 -30.24875,38.25275 -2.88408,2.448 -5.98623,4.6268 -8.97934,6.9402 -3.31526,2.0649 -6.51543,4.3273 -9.94579,6.1948 -14.0997,7.6759 -30.27826,12.7032 -46.42339,12.8456 -4.34589,0.038 -8.67314,-0.5741 -13.00971,-0.8612 -16.41061,-2.5404 -31.75458,-8.891 -45.94656,-17.3805 -8.65345,-5.1764 -11.81448,-7.8 -19.88186,-13.7437 -9.337854,-7.2138 -18.141613,-15.08026 -26.235907,-23.6689 -5.575441,-5.91595 -10.026004,-11.10212 -14.597109,-17.87016 -2.233223,-3.30653 -4.137513,-6.8237 -6.20627,-10.23555 -1.761805,-3.78251 -3.74272,-7.4705 -5.285414,-11.34754 -6.323573,-15.89217 -9.454164,-33.47924 -10.720209,-50.47356 -0.326169,-4.37822 -0.385898,-8.77222 -0.578847,-13.15833 -0.292708,-12.28989 0.575051,-24.55635 2.061456,-36.74762 0.91459,-7.50132 2.006608,-14.78136 3.613535,-22.17067 0.811254,-3.73048 1.837507,-7.41093 2.756261,-11.1164 5.27314,-20.1 14.032277,-38.84879 23.291559,-57.35175 4.684573,-9.58241 10.445819,-18.55567 16.315949,-27.43735 19.510973,-29.48427 61.208026,-1.89158 41.697046,27.59268 l 0,0 c -4.77423,7.20435 -9.52817,14.44278 -13.30784,22.23772 -7.637879,15.23197 -15.065554,30.65343 -19.513063,47.17899 -0.70512,2.7372 -1.496631,5.45358 -2.115358,8.21159 -1.417324,6.31781 -2.214892,11.79721 -3.028972,18.24071 -1.22929,9.7299 -1.9989,19.51936 -1.811659,29.33554 0.122406,3.38806 0.146575,6.7811 0.367219,10.16418 0.614246,9.41811 2.060546,18.73756 4.443041,27.87185 0.620738,2.37986 1.280502,4.75497 2.110613,7.07012 0.785219,2.18995 1.818576,4.28283 2.727864,6.42425 3.074209,5.41087 3.745232,7.07997 7.697917,12.01367 7.570238,9.4491 16.688688,17.55676 26.116538,25.08605 2.41748,1.81151 4.78722,3.68854 7.25243,5.43453 10.11238,7.16209 21.13078,13.2277 33.28249,16.04346 1.69365,0.25843 3.37055,0.67643 5.08095,0.7753 8.0499,0.46531 16.75257,-2.11726 23.88738,-5.6957 1.97071,-0.9884 3.81295,-2.21449 5.71943,-3.32174 1.78399,-1.30437 3.63165,-2.52584 5.35195,-3.91311 8.09611,-6.52881 14.49959,-14.90589 19.45121,-23.99985 0.89092,-1.73027 1.83194,-3.43565 2.67277,-5.19082 4.08569,-8.52862 7.13615,-17.57005 8.23862,-26.99051 0.16542,-2.28563 0.37762,-4.56836 0.49627,-6.85689 0.68255,-13.16483 0.20076,-26.42 -1.07193,-39.53024 -0.39001,-2.47277 -0.65292,-4.96897 -1.17004,-7.41831 -3.28071,-15.53919 -10.54814,-29.78768 -19.93237,-42.50573 -2.17538,-2.79034 -4.27282,-5.64323 -6.52614,-8.37103 -8.83426,-10.6945 -18.66646,-20.88796 -31.10202,-27.34033 -2.35485,-1.03541 -4.67476,-2.15425 -7.06457,-3.10622 -11.36421,-4.5269 -23.42563,-7.05391 -35.67172,-7.10876 -2.41832,0.0399 -4.8383,0.0216 -7.25496,0.11983 -7.36375,0.29932 -14.66121,1.3631 -21.86905,2.86652 -34.874291,5.81238 -43.09424,-43.50732 -8.219949,-49.3197 z"
       inkscape:connector-curvature="0" />
  </g>
</svg>
