<!-- Created with Inkscape (http://www.inkscape.org/) -->
<svg id="svg2" xmlns:rdf="http://www.w3.org/1999/02/22-rdf-syntax-ns#" xmlns="http://www.w3.org/2000/svg" height="30mm" width="30mm" version="1.1" xmlns:cc="http://creativecommons.org/ns#" xmlns:dc="http://purl.org/dc/elements/1.1/" viewBox="0 0 106.29921 106.29921">
 <g id="layer1" transform="translate(0 -946.06)">
  <path id="path3715" d="m51.939 949.57c-14.668-.0156-28.74 7.5163-37.904 18.792-11.818 14.184-14.542 35.173-6.8216 51.934 6.1132 13.771 18.481 24.76 33.17 28.47 7.86 2.0746 16.184 1.7773 24.132.3824 15.505-3.3864 28.85-14.873 35.11-29.379 6.7231-15.656 4.9048-34.737-4.9722-48.676-7.9024-11.394-20.733-19.347-34.495-21.163-2.7299-.27702-5.4767-.37236-8.2197-.35938zm1.3096 17.346c3.6468-.18135 7.2991.2812 10.705 1.6421 10.407 3.5364 18.992 12.325 21.599 23.089 2.5727 10.334-.05196 21.925-7.2173 29.882-6.4112 7.3553-16.179 11.69-25.958 11.209-16.324.4003-31.494-13.656-32.48-29.927-.45684-6.0661.33438-12.331 3.2527-17.744 4.9223-9.6176 14.692-16.865 25.518-18.021 1.5237-.11653 3.0533-.12619 4.5806-.1294z"/>
 </g>
</svg>
