<?xml version="1.0" encoding="UTF-8" standalone="no"?>
<!-- Created with Inkscape (http://www.inkscape.org/) -->

<svg
   xmlns:dc="http://purl.org/dc/elements/1.1/"
   xmlns:cc="http://creativecommons.org/ns#"
   xmlns:rdf="http://www.w3.org/1999/02/22-rdf-syntax-ns#"
   xmlns:svg="http://www.w3.org/2000/svg"
   xmlns="http://www.w3.org/2000/svg"
   xmlns:sodipodi="http://sodipodi.sourceforge.net/DTD/sodipodi-0.dtd"
   xmlns:inkscape="http://www.inkscape.org/namespaces/inkscape"
   width="100mm"
   height="100mm"
   viewBox="0 0 354.33071 354.33071"
   id="svg2"
   version="1.1"
   inkscape:version="0.91 r13725"
   sodipodi:docname="circle13.svg">
  <defs
     id="defs4" />
  <sodipodi:namedview
     id="base"
     pagecolor="#ffffff"
     bordercolor="#666666"
     borderopacity="1.0"
     inkscape:pageopacity="0.0"
     inkscape:pageshadow="2"
     inkscape:zoom="1.28"
     inkscape:cx="258.90253"
     inkscape:cy="198.38663"
     inkscape:document-units="px"
     inkscape:current-layer="layer1"
     showgrid="false"
     inkscape:window-width="1315"
     inkscape:window-height="744"
     inkscape:window-x="51"
     inkscape:window-y="622"
     inkscape:window-maximized="1" />
  <metadata
     id="metadata7">
    <rdf:RDF>
      <cc:Work
         rdf:about="">
        <dc:format>image/svg+xml</dc:format>
        <dc:type
           rdf:resource="http://purl.org/dc/dcmitype/StillImage" />
        <dc:title></dc:title>
      </cc:Work>
    </rdf:RDF>
  </metadata>
  <g
     inkscape:label="Layer 1"
     inkscape:groupmode="layer"
     id="layer1"
     transform="translate(0,-698.0315)">
    <path
       style="fill:#000000"
       id="path4220"
       d="m 71.454797,791.48964 c 4.799611,-7.94394 10.701519,-15.15101 16.584411,-22.30392 5.726781,-6.65352 11.976852,-13.01147 19.579822,-17.53767 5.74059,-3.41749 7.93966,-4.00693 13.9991,-6.37947 14.02223,-4.53923 28.69847,-6.51753 43.22744,-8.70667 10.63699,-1.31671 21.36031,-2.77842 32.10818,-2.54116 2.22495,0.0491 4.44448,0.2406 6.66672,0.36089 13.13349,1.33494 25.42229,6.41813 36.75559,13.01543 2.69278,1.56752 5.28457,3.30244 7.92685,4.95365 8.85787,5.98766 17.00978,12.911 24.96039,20.03479 5.07715,4.54914 11.19543,10.22095 15.9937,15.04632 2.63742,2.65232 5.16784,5.40895 7.75176,8.11342 10.04349,11.08822 18.05893,23.7197 23.68697,37.58006 3.54378,8.72737 3.83267,10.9329 6.30072,20.08781 4.383,20.19772 4.47712,41.07781 1.99214,61.53876 -0.56468,4.64943 -1.39641,9.26251 -2.09461,13.89377 -3.32784,17.7284 -9.0216,34.9916 -17.97279,50.70505 -5.3431,9.37959 -6.89076,10.72755 -13.47856,19.13605 -2.92593,2.83865 -5.65476,5.89575 -8.77779,8.51605 -8.90626,7.4725 -19.39358,13.0412 -30.439,16.5921 -9.77505,3.1426 -13.17885,3.1871 -23.38157,4.6582 -22.08815,2.2198 -44.03779,-1.6191 -65.39411,-7.0103 -4.46542,-1.1272 -8.89094,-2.407 -13.33641,-3.6105 -20.64828,-6.162 -41.04684,-13.5031 -60.20114,-23.45644 -3.02389,-1.57134 -5.964495,-3.298 -8.946742,-4.947 -10.061638,-5.97585 -19.541333,-13.11657 -26.581079,-22.58803 -4.534314,-6.10058 -5.144761,-8.19174 -8.435551,-15.00683 -5.348121,-13.6014 -8.351677,-28.06692 -9.592985,-42.61325 -0.320593,-3.75689 -0.43551,-7.52849 -0.653266,-11.29274 -0.412262,-15.02751 0.372939,-30.0795 2.153328,-45.0039 0.938876,-7.87028 1.426096,-10.23706 2.700922,-17.77709 0.409358,-2.15029 0.818715,-4.30058 1.228073,-6.45086 6.63826,-34.72656 55.74902,-25.33864 49.110762,9.38791 l 0,0 c -0.350205,1.8232 -0.700411,3.6464 -1.050617,5.46959 -2.941268,17.06179 -4.671143,34.33931 -4.215335,51.67594 0.136572,2.79165 0.195975,5.58815 0.409716,8.37496 0.714305,9.31329 2.437532,18.58857 5.389181,27.4547 0.819334,2.1963 1.579166,4.39579 3.105765,6.22988 2.948938,3.5429 6.909288,6.03829 10.762648,8.45934 2.23507,1.25724 4.43561,2.57794 6.70522,3.77172 16.26993,8.55775 33.67091,14.74478 51.22713,20.06303 16.617,4.53825 33.63612,9.39215 51.00429,9.60639 2.68614,0.0331 5.36883,-0.20312 8.05325,-0.30469 2.26886,-0.25229 4.55197,-0.39894 6.80658,-0.75688 8.66892,-1.37627 16.84804,-4.74304 23.34705,-10.72818 1.37233,-1.63988 2.8424,-3.20268 4.11697,-4.91964 8.98722,-12.10657 13.90701,-26.60486 16.9163,-41.22981 0.58114,-3.693 1.26168,-7.37174 1.74342,-11.07902 1.90056,-14.62582 2.16094,-29.61358 -0.60329,-44.14194 -0.51991,-2.11053 -0.94803,-4.2458 -1.55971,-6.33157 -3.21222,-10.95335 -8.66143,-20.94786 -16.26297,-29.48058 -2.10063,-2.21721 -4.15307,-4.4811 -6.30189,-6.65164 -4.46097,-4.50608 -9.56054,-9.20956 -14.26748,-13.45295 -5.9896,-5.39972 -12.09826,-10.68576 -18.69794,-15.33749 -6.51551,-4.23012 -13.36228,-8.57026 -21.03361,-10.29164 -1.09605,-0.0878 -2.18947,-0.21956 -3.28815,-0.26345 -8.33576,-0.33303 -16.67028,1.08593 -24.92423,1.98622 -11.07682,1.66087 -22.23223,3.18577 -33.06991,6.06586 -0.90143,0.30306 -1.79937,0.61672 -2.7043,0.90918 -0.44608,0.14417 -0.91701,0.21643 -1.34816,0.40051 -3.5579,1.51909 -5.92899,4.91845 -8.52598,7.59609 -4.50983,5.46316 -9.10862,10.93129 -12.77531,17.01158 -18.738289,29.98127 -61.138205,3.48132 -42.399913,-26.49994 z"
       inkscape:connector-curvature="0" />
  </g>
</svg>
