<?xml version="1.0" encoding="UTF-8" standalone="no"?>
<!-- Created with Inkscape (http://www.inkscape.org/) -->

<svg
   xmlns:dc="http://purl.org/dc/elements/1.1/"
   xmlns:cc="http://creativecommons.org/ns#"
   xmlns:rdf="http://www.w3.org/1999/02/22-rdf-syntax-ns#"
   xmlns:svg="http://www.w3.org/2000/svg"
   xmlns="http://www.w3.org/2000/svg"
   xmlns:sodipodi="http://sodipodi.sourceforge.net/DTD/sodipodi-0.dtd"
   xmlns:inkscape="http://www.inkscape.org/namespaces/inkscape"
   width="100mm"
   height="100mm"
   viewBox="0 0 354.33071 354.33071"
   id="svg2"
   version="1.1"
   inkscape:version="0.91 r13725"
   sodipodi:docname="circle2.svg">
  <defs
     id="defs4" />
  <sodipodi:namedview
     id="base"
     pagecolor="#ffffff"
     bordercolor="#666666"
     borderopacity="1.0"
     inkscape:pageopacity="0.0"
     inkscape:pageshadow="2"
     inkscape:zoom="1.28"
     inkscape:cx="258.90253"
     inkscape:cy="198.38663"
     inkscape:document-units="px"
     inkscape:current-layer="layer1"
     showgrid="false"
     inkscape:window-width="1315"
     inkscape:window-height="744"
     inkscape:window-x="51"
     inkscape:window-y="622"
     inkscape:window-maximized="1" />
  <metadata
     id="metadata7">
    <rdf:RDF>
      <cc:Work
         rdf:about="">
        <dc:format>image/svg+xml</dc:format>
        <dc:type
           rdf:resource="http://purl.org/dc/dcmitype/StillImage" />
        <dc:title></dc:title>
      </cc:Work>
    </rdf:RDF>
  </metadata>
  <g
     inkscape:label="Layer 1"
     inkscape:groupmode="layer"
     id="layer1"
     transform="translate(0,-698.0315)">
    <path
       style="fill:#000000"
       id="path3947"
       d="m 106.30702,756.45323 c 18.16534,7.44047 36.44294,14.60623 54.65138,21.94171 26.11958,10.99583 52.3326,21.80644 78.09428,33.6286 9.10131,4.17663 19.32038,9.15166 28.41921,13.54071 11.40627,5.44522 22.67115,11.30526 32.89343,18.79031 5.34706,3.91527 6.09252,4.78946 10.96791,9.14465 6.40954,6.16313 11.60082,13.42354 15.59952,21.34921 1.87966,3.72561 2.40983,5.33876 3.90369,9.16201 2.19956,6.16404 3.60005,12.58715 3.67199,19.1514 0.0437,3.98396 -0.26762,5.56475 -0.73283,9.42623 -1.70065,9.03984 -5.1801,17.58655 -9.33988,25.74518 -5.52813,9.43501 -13.08146,17.42045 -20.6058,25.26953 -10.16497,10.44776 -21.46557,19.69889 -32.91986,28.68076 -13.08649,9.91437 -27.26879,18.48747 -42.81449,23.96207 -3.67695,1.2949 -7.45602,2.2791 -11.18403,3.4187 -18.40568,4.6144 -37.62763,6.1866 -56.50465,3.8526 -3.43336,-0.4245 -6.82393,-1.1431 -10.23589,-1.7147 -12.40956,-2.7326 -24.46514,-7.426 -34.63686,-15.197 -7.05704,-5.3914 -7.66037,-6.82808 -13.38436,-13.55359 -6.393136,-8.82118 -10.697457,-18.80734 -13.813697,-29.19303 -1.563727,-5.21153 -2.382882,-9.01204 -3.6357,-14.29797 -2.117359,-10.28662 -3.740398,-20.7287 -4.006323,-31.24643 -0.180931,-7.1561 0.114578,-9.10745 0.594328,-16.20239 0.969979,-11.04811 3.602466,-21.90598 7.723982,-32.20184 2.780862,-6.94679 4.093578,-9.04865 7.552476,-15.65811 8.385954,-14.85365 18.948054,-28.31357 29.322344,-41.80214 10.33015,-13.57811 20.92182,-26.94552 32.05335,-39.87545 6.59807,-7.33341 3.45375,-3.86246 9.42618,-10.41903 23.81011,-26.13578 60.77168,7.53679 36.96158,33.67257 l 0,0 c -5.54265,6.08329 -2.70409,2.95428 -8.51345,9.38903 -10.54081,12.21496 -20.51704,24.88798 -30.29674,37.71879 -8.67284,11.2725 -17.5559,22.47872 -24.78756,34.7553 -2.06675,3.81023 -3.09981,5.48716 -4.77096,9.4225 -2.52228,5.93961 -4.22536,12.22146 -4.80505,18.65442 -0.34536,4.18851 -0.57302,5.75365 -0.52768,9.95501 0.0813,7.5326 1.31639,15.00731 2.74376,22.38317 1.89073,8.10562 3.68673,16.36126 7.80567,23.68969 0.34929,0.58846 0.64201,1.2144 1.04787,1.76537 1.3507,1.83362 2.45442,2.61431 4.43957,3.94799 3.7263,2.50345 7.88116,4.05662 12.24481,5.06254 1.93057,0.37665 3.84373,0.85729 5.79171,1.12995 12.64788,1.77037 25.59388,0.89552 38.00027,-1.97522 2.32648,-0.65528 4.68575,-1.20364 6.97943,-1.96583 11.10918,-3.69156 21.11504,-9.8506 30.41854,-16.85522 9.61258,-7.50198 19.10466,-15.2295 27.66639,-23.93361 4.2965,-4.46534 8.52017,-9.00127 12.38358,-13.84701 1.45901,-2.56099 2.43708,-5.27049 3.4471,-8.0315 0.47143,-1.28872 0.0441,-1.32326 0.63051,-1.20171 0.0768,-0.36506 0.004,-0.86219 0.30974,-1.07541 0.038,-0.0265 0.1126,0.0609 0.1372,0.0217 0.47763,-0.76146 -0.59253,-2.29387 -0.56155,-3.0291 -1.47147,-4.1236 -3.32929,-8.12044 -6.41024,-11.31093 -0.85168,-0.80146 -1.66972,-1.64023 -2.55503,-2.40439 -8.69403,-7.50425 -19.16307,-12.49931 -29.40061,-17.4961 -8.30038,-4.00523 -18.89797,-9.16085 -27.13267,-12.94237 -25.18084,-11.56347 -50.80975,-22.12262 -76.33896,-32.8822 C 123.52121,817.21733 104.68328,809.86847 86.000097,802.14381 53.69198,787.78465 73.998903,742.09407 106.30702,756.45323 Z"
       inkscape:connector-curvature="0" />
  </g>
</svg>
